999
dxfrw 0.5.10
0
SECTION
2
HEADER
9
$ACADVER
1
AC1021
9
$HANDSEED
5
20000
9
$DWGCODEPAGE
3
ANSI_1252
9
$INSBASE
10
0
20
0
30
0
9
$EXTMIN
10
0
20
0
30
0
9
$EXTMAX
10
90.5
20
122.75
30
0
9
$LIMMIN
10
0
20
0
9
$LIMMAX
10
420
20
297
9
$ORTHOMODE
70
0
9
$LTSCALE
40
1
9
$TEXTSTYLE
7
STANDARD
9
$CLAYER
8
0
9
$DIMASZ
40
2.5
9
$DIMLFAC
40
1
9
$DIMSCALE
40
1
9
$DIMEXO
40
0.625
9
$DIMEXE
40
1.25
9
$DIMTXT
40
2.5
9
$DIMTSZ
40
0
9
$DIMAUNIT
70
0
9
$DIMADEC
70
0
9
$DIMLUNIT
70
2
9
$DIMSTYLE
2
STANDARD
9
$DIMGAP
40
0.625
9
$DIMTIH
70
0
9
$LUNITS
70
2
9
$LUPREC
70
4
9
$AUNITS
70
0
9
$AUPREC
70
2
9
$SPLINESEGS
70
8
9
$SNAPSTYLE
70
0
9
$PINSBASE
10
0
20
0
30
0
9
$PLIMMIN
10
0
20
0
9
$PLIMMAX
10
210
20
297
9
$INSUNITS
70
4
9
$PSVPSCALE
40
1
0
ENDSEC
0
SECTION
2
CLASSES
0
ENDSEC
0
SECTION
2
TABLES
0
TABLE
2
VPORT
5
8
330
0
100
AcDbSymbolTable
70
1
0
VPORT
5
31
330
2
100
AcDbSymbolTableRecord
100
AcDbViewportTableRecord
2
*ACTIVE
70
0
10
0
20
0
11
1
21
1
12
116.5
22
82.625
13
0
23
0
14
10
24
10
15
10
25
10
16
0
26
0
36
1
17
0
27
0
37
0
40
177.75
41
1.3811533052
42
50
43
0
44
0
50
0
51
0
71
0
72
100
73
1
74
3
75
0
76
1
77
0
78
0
281
0
65
1
110
0
120
0
130
0
111
1
121
0
131
0
112
0
122
1
132
0
79
0
146
0
348
10020
60
7
61
5
292
1
282
1
141
0
142
0
63
250
421
3358443
0
ENDTAB
0
TABLE
2
LTYPE
5
5
330
0
100
AcDbSymbolTable
70
4
0
LTYPE
5
14
330
5
100
AcDbSymbolTableRecord
100
AcDbLinetypeTableRecord
2
ByBlock
70
0
3

72
65
73
0
40
0
0
LTYPE
5
15
330
5
100
AcDbSymbolTableRecord
100
AcDbLinetypeTableRecord
2
ByLayer
70
0
3

72
65
73
0
40
0
0
LTYPE
5
16
330
5
100
AcDbSymbolTableRecord
100
AcDbLinetypeTableRecord
2
Continuous
70
0
3
Solid line
72
65
73
0
40
0
0
LTYPE
5
32
330
5
100
AcDbSymbolTableRecord
100
AcDbLinetypeTableRecord
2
DOT
70
0
3
Dot . . . . . . . . . . . . . . . . . . . . . .
72
65
73
2
40
6.35
49
0
74
0
49
-6.35
74
0
0
LTYPE
5
33
330
5
100
AcDbSymbolTableRecord
100
AcDbLinetypeTableRecord
2
DOT2
70
0
3
Dot (.5x) .....................................
72
65
73
2
40
3.175
49
0
74
0
49
-3.175
74
0
0
LTYPE
5
34
330
5
100
AcDbSymbolTableRecord
100
AcDbLinetypeTableRecord
2
DOTX2
70
0
3
Dot (2x) .  .  .  .  .  .  .  .  .  .  .  .  .
72
65
73
2
40
12.7
49
0
74
0
49
-12.7
74
0
0
LTYPE
5
35
330
5
100
AcDbSymbolTableRecord
100
AcDbLinetypeTableRecord
2
DASHED
70
0
3
Dot . . . . . . . . . . . . . . . . . . . . . .
72
65
73
2
40
19.05
49
12.7
74
0
49
-6.35
74
0
0
LTYPE
5
36
330
5
100
AcDbSymbolTableRecord
100
AcDbLinetypeTableRecord
2
DASHED2
70
0
3
Dashed (.5x) _ _ _ _ _ _ _ _ _ _ _ _ _ _ _ _ _
72
65
73
2
40
9.525
49
6.35
74
0
49
-3.175
74
0
0
LTYPE
5
37
330
5
100
AcDbSymbolTableRecord
100
AcDbLinetypeTableRecord
2
DASHEDX2
70
0
3
Dashed (2x) ____  ____  ____  ____  ____  ___
72
65
73
2
40
38.1
49
25.4
74
0
49
-12.7
74
0
0
LTYPE
5
38
330
5
100
AcDbSymbolTableRecord
100
AcDbLinetypeTableRecord
2
DASHDOT
70
0
3
Dash dot __ . __ . __ . __ . __ . __ . __ . __
72
65
73
4
40
25.4
49
12.7
74
0
49
-6.35
74
0
49
0
74
0
49
-6.35
74
0
0
LTYPE
5
39
330
5
100
AcDbSymbolTableRecord
100
AcDbLinetypeTableRecord
2
DASHDOT2
70
0
3
Dash dot (.5x) _._._._._._._._._._._._._._._.
72
65
73
4
40
12.7
49
6.35
74
0
49
-3.175
74
0
49
0
74
0
49
-3.175
74
0
0
LTYPE
5
3A
330
5
100
AcDbSymbolTableRecord
100
AcDbLinetypeTableRecord
2
DASHDOTX2
70
0
3
Dash dot (2x) ____  .  ____  .  ____  .  ___
72
65
73
4
40
50.8
49
25.4
74
0
49
-12.7
74
0
49
0
74
0
49
-12.7
74
0
0
LTYPE
5
3B
330
5
100
AcDbSymbolTableRecord
100
AcDbLinetypeTableRecord
2
DIVIDE
70
0
3
Divide ____ . . ____ . . ____ . . ____ . . ____
72
65
73
6
40
31.75
49
12.7
74
0
49
-6.35
74
0
49
0
74
0
49
-6.35
74
0
49
0
74
0
49
-6.35
74
0
0
LTYPE
5
3C
330
5
100
AcDbSymbolTableRecord
100
AcDbLinetypeTableRecord
2
DIVIDE2
70
0
3
Divide (.5x) __..__..__..__..__..__..__..__.._
72
65
73
6
40
15.875
49
6.35
74
0
49
-3.175
74
0
49
0
74
0
49
-3.175
74
0
49
0
74
0
49
-3.175
74
0
0
LTYPE
5
3D
330
5
100
AcDbSymbolTableRecord
100
AcDbLinetypeTableRecord
2
DIVIDEX2
70
0
3
Divide (2x) ________  .  .  ________  .  .  _
72
65
73
6
40
63.5
49
25.4
74
0
49
-12.7
74
0
49
0
74
0
49
-12.7
74
0
49
0
74
0
49
-12.7
74
0
0
LTYPE
5
3E
330
5
100
AcDbSymbolTableRecord
100
AcDbLinetypeTableRecord
2
BORDER
70
0
3
Border __ __ . __ __ . __ __ . __ __ . __ __ .
72
65
73
6
40
44.45
49
12.7
74
0
49
-6.35
74
0
49
12.7
74
0
49
-6.35
74
0
49
0
74
0
49
-6.35
74
0
0
LTYPE
5
3F
330
5
100
AcDbSymbolTableRecord
100
AcDbLinetypeTableRecord
2
BORDER2
70
0
3
Border (.5x) __.__.__.__.__.__.__.__.__.__.__.
72
65
73
6
40
22.225
49
6.35
74
0
49
-3.175
74
0
49
6.35
74
0
49
-3.175
74
0
49
0
74
0
49
-3.175
74
0
0
LTYPE
5
40
330
5
100
AcDbSymbolTableRecord
100
AcDbLinetypeTableRecord
2
BORDERX2
70
0
3
Border (2x) ____  ____  .  ____  ____  .  ___
72
65
73
6
40
88.9
49
25.4
74
0
49
-12.7
74
0
49
25.4
74
0
49
-12.7
74
0
49
0
74
0
49
-12.7
74
0
0
LTYPE
5
41
330
5
100
AcDbSymbolTableRecord
100
AcDbLinetypeTableRecord
2
CENTER
70
0
3
Center ____ _ ____ _ ____ _ ____ _ ____ _ ____
72
65
73
4
40
50.8
49
31.75
74
0
49
-6.35
74
0
49
6.35
74
0
49
-6.35
74
0
0
LTYPE
5
42
330
5
100
AcDbSymbolTableRecord
100
AcDbLinetypeTableRecord
2
CENTER2
70
0
3
Center (.5x) ___ _ ___ _ ___ _ ___ _ ___ _ ___
72
65
73
4
40
28.575
49
19.05
74
0
49
-3.175
74
0
49
3.175
74
0
49
-3.175
74
0
0
LTYPE
5
43
330
5
100
AcDbSymbolTableRecord
100
AcDbLinetypeTableRecord
2
CENTERX2
70
0
3
Center (2x) ________  __  ________  __  _____
72
65
73
4
40
101.6
49
63.5
74
0
49
-12.7
74
0
49
12.7
74
0
49
-12.7
74
0
0
ENDTAB
0
TABLE
2
LAYER
5
2
330
0
100
AcDbSymbolTable
70
1
0
LAYER
5
10
330
2
100
AcDbSymbolTableRecord
100
AcDbLayerTableRecord
2
0
70
0
62
7
6
CONTINUOUS
370
0
390
F
0
LAYER
5
44
330
2
100
AcDbSymbolTableRecord
100
AcDbLayerTableRecord
2
back
70
0
62
7
6
CONTINUOUS
370
0
390
F
0
ENDTAB
0
TABLE
2
STYLE
5
3
330
0
100
AcDbSymbolTable
70
3
0
STYLE
5
45
330
2
100
AcDbSymbolTableRecord
100
AcDbTextStyleTableRecord
2
Standard
70
0
40
0
41
1
50
0
71
0
42
1
3
txt
4

0
ENDTAB
0
TABLE
2
VIEW
5
6
330
0
100
AcDbSymbolTable
70
0
0
ENDTAB
0
TABLE
2
UCS
5
7
330
0
100
AcDbSymbolTable
70
0
0
ENDTAB
0
TABLE
2
APPID
5
9
330
0
100
AcDbSymbolTable
70
1
0
APPID
5
12
330
9
100
AcDbSymbolTableRecord
100
AcDbRegAppTableRecord
2
ACAD
70
0
0
ENDTAB
0
TABLE
2
DIMSTYLE
5
A
330
0
100
AcDbSymbolTable
70
1
100
AcDbDimStyleTable
71
1
0
DIMSTYLE
105
46
330
A
100
AcDbSymbolTableRecord
100
AcDbDimStyleTableRecord
2
Standard
70
0
40
1
41
2.5
42
0.625
43
0.38
44
1.25
45
0
46
0
47
0
48
0
140
2.5
141
0.09
142
0
143
25.4
144
1
145
0
146
1
147
0.625
148
0
71
0
72
0
73
0
74
1
75
0
76
0
77
0
78
0
79
0
170
0
171
2
172
0
173
0
174
0
175
0
176
0
177
0
178
0
179
0
271
4
272
4
273
2
274
2
275
0
276
0
277
2
278
46
279
0
280
0
281
0
282
0
283
1
284
0
285
0
286
0
288
0
289
3
340
Standard
341

371
-2
372
-2
0
ENDTAB
0
TABLE
2
BLOCK_RECORD
5
1
330
0
100
AcDbSymbolTable
70
2
0
BLOCK_RECORD
5
1F
330
1
100
AcDbSymbolTableRecord
100
AcDbBlockTableRecord
2
*Model_Space
70
0
280
1
281
0
0
BLOCK_RECORD
5
1E
330
1
100
AcDbSymbolTableRecord
100
AcDbBlockTableRecord
2
*Paper_Space
70
0
280
1
281
0
0
ENDTAB
0
ENDSEC
0
SECTION
2
BLOCKS
0
BLOCK
5
20
330
1F
100
AcDbEntity
8
0
100
AcDbBlockBegin
2
*Model_Space
70
0
10
0
20
0
30
0
3
*Model_Space
1

0
ENDBLK
5
21
330
1F
100
AcDbEntity
8
0
100
AcDbBlockEnd
0
BLOCK
5
1C
330
1B
100
AcDbEntity
8
0
100
AcDbBlockBegin
2
*Paper_Space
70
0
10
0
20
0
30
0
3
*Paper_Space
1

0
ENDBLK
5
1D
330
1F
100
AcDbEntity
8
0
100
AcDbBlockEnd
0
ENDSEC
0
SECTION
2
ENTITIES
0
CIRCLE
5
47
100
AcDbEntity
8
back
6
ByLayer
62
256
370
-1
100
AcDbCircle
10
5.5
20
117.75
40
1.5
0
CIRCLE
5
48
100
AcDbEntity
8
back
6
ByLayer
62
256
370
-1
100
AcDbCircle
10
85.5
20
117.75
40
1.5
0
CIRCLE
5
49
100
AcDbEntity
8
back
6
ByLayer
62
256
370
-1
100
AcDbCircle
10
85.5
20
7.75
40
1.5
0
CIRCLE
5
4A
100
AcDbEntity
8
back
6
ByLayer
62
256
370
-1
100
AcDbCircle
10
5.5
20
7.75
40
1.5
0
ARC
5
4B
100
AcDbEntity
8
back
6
ByLayer
62
256
370
-1
100
AcDbCircle
10
5.5
20
117.75
40
5
100
AcDbArc
50
90
51
180
0
LINE
5
4C
100
AcDbEntity
8
back
6
ByLayer
62
256
370
-1
100
AcDbLine
10
85.5
20
122.75
11
5.5
21
122.75
0
ARC
5
4D
100
AcDbEntity
8
back
6
ByLayer
62
256
370
-1
100
AcDbCircle
10
85.5
20
117.75
40
5
100
AcDbArc
50
0
51
90
0
LINE
5
4E
100
AcDbEntity
8
back
6
ByLayer
62
256
370
-1
100
AcDbLine
10
90.5
20
7.75
11
90.5
21
117.75
0
ARC
5
4F
100
AcDbEntity
8
back
6
ByLayer
62
256
370
-1
100
AcDbCircle
10
85.5
20
7.75
40
5
100
AcDbArc
50
270
51
0
0
LINE
5
50
100
AcDbEntity
8
back
6
ByLayer
62
256
370
-1
100
AcDbLine
10
0.5
20
117.75
11
0.5
21
7.75
0
LINE
5
51
100
AcDbEntity
8
back
6
ByLayer
62
256
370
-1
100
AcDbLine
10
5.5
20
2.75
11
85.5
21
2.75
0
ARC
5
52
100
AcDbEntity
8
back
6
ByLayer
62
256
370
-1
100
AcDbCircle
10
5.5
20
7.75
40
5
100
AcDbArc
50
180
51
270
0
LINE
5
53
100
AcDbEntity
8
back
6
ByLayer
62
256
370
-1
100
AcDbLine
10
39.5
20
97.5887
11
51.5
21
97.5887
0
LINE
5
54
100
AcDbEntity
8
back
6
ByLayer
62
256
370
-1
100
AcDbLine
10
51.5
20
97.5887
11
51.5
21
95.5887
0
LINE
5
55
100
AcDbEntity
8
back
6
ByLayer
62
256
370
-1
100
AcDbLine
10
51.5
20
95.5887
11
39.5
21
95.5887
0
LINE
5
56
100
AcDbEntity
8
back
6
ByLayer
62
256
370
-1
100
AcDbLine
10
39.5
20
95.5887
11
39.5
21
97.5887
0
ARC
5
57
100
AcDbEntity
8
back
6
ByLayer
62
256
370
-1
100
AcDbCircle
10
28.3867513459
20
23.7307621135
40
2
100
AcDbArc
50
90
51
150
0
LINE
5
58
100
AcDbEntity
8
back
6
ByLayer
62
256
370
-1
100
AcDbLine
10
26.6547005384
20
24.7307621135
11
24.5414518843
21
21.0705080757
0
ARC
5
59
100
AcDbEntity
8
back
6
ByLayer
62
256
370
-1
100
AcDbCircle
10
26.2735026919
20
20.0705080757
40
2
100
AcDbArc
50
150
51
210
0
LINE
5
5A
100
AcDbEntity
8
back
6
ByLayer
62
256
370
-1
100
AcDbLine
10
26.6547005384
20
15.4102540378
11
24.5414518843
21
19.0705080757
0
ARC
5
5B
100
AcDbEntity
8
back
6
ByLayer
62
256
370
-1
100
AcDbCircle
10
28.3867513459
20
16.4102540378
40
2
100
AcDbArc
50
210
51
270
0
LINE
5
5C
100
AcDbEntity
8
back
6
ByLayer
62
256
370
-1
100
AcDbLine
10
28.3867513459
20
14.4102540378
11
32.6132486541
21
14.4102540378
0
ARC
5
5D
100
AcDbEntity
8
back
6
ByLayer
62
256
370
-1
100
AcDbCircle
10
32.6132486541
20
16.4102540378
40
2
100
AcDbArc
50
270
51
330
0
LINE
5
5E
100
AcDbEntity
8
back
6
ByLayer
62
256
370
-1
100
AcDbLine
10
36.4585481157
20
19.0705080757
11
34.3452994616
21
15.4102540378
0
ARC
5
5F
100
AcDbEntity
8
back
6
ByLayer
62
256
370
-1
100
AcDbCircle
10
34.7264973081
20
20.0705080757
40
2
100
AcDbArc
50
330
51
30
0
LINE
5
60
100
AcDbEntity
8
back
6
ByLayer
62
256
370
-1
100
AcDbLine
10
36.4585481157
20
21.0705080757
11
34.3452994616
21
24.7307621135
0
LINE
5
61
100
AcDbEntity
8
back
6
ByLayer
62
256
370
-1
100
AcDbLine
10
28.3867513459
20
25.7307621135
11
32.6132486541
21
25.7307621135
0
ARC
5
62
100
AcDbEntity
8
back
6
ByLayer
62
256
370
-1
100
AcDbCircle
10
32.6132486541
20
23.7307621135
40
2
100
AcDbArc
50
30
51
90
0
ARC
5
63
100
AcDbEntity
8
back
6
ByLayer
62
256
370
-1
100
AcDbCircle
10
58.3867513459
20
23.7307621135
40
2
100
AcDbArc
50
90
51
150
0
LINE
5
64
100
AcDbEntity
8
back
6
ByLayer
62
256
370
-1
100
AcDbLine
10
56.6547005384
20
24.7307621135
11
54.5414518843
21
21.0705080757
0
ARC
5
65
100
AcDbEntity
8
back
6
ByLayer
62
256
370
-1
100
AcDbCircle
10
56.2735026919
20
20.0705080757
40
2
100
AcDbArc
50
150
51
210
0
LINE
5
66
100
AcDbEntity
8
back
6
ByLayer
62
256
370
-1
100
AcDbLine
10
56.6547005384
20
15.4102540378
11
54.5414518843
21
19.0705080757
0
ARC
5
67
100
AcDbEntity
8
back
6
ByLayer
62
256
370
-1
100
AcDbCircle
10
58.3867513459
20
16.4102540378
40
2
100
AcDbArc
50
210
51
270
0
LINE
5
68
100
AcDbEntity
8
back
6
ByLayer
62
256
370
-1
100
AcDbLine
10
58.3867513459
20
14.4102540378
11
62.6132486541
21
14.4102540378
0
ARC
5
69
100
AcDbEntity
8
back
6
ByLayer
62
256
370
-1
100
AcDbCircle
10
62.6132486541
20
16.4102540378
40
2
100
AcDbArc
50
270
51
330
0
LINE
5
6A
100
AcDbEntity
8
back
6
ByLayer
62
256
370
-1
100
AcDbLine
10
66.4585481157
20
19.0705080757
11
64.3452994616
21
15.4102540378
0
ARC
5
6B
100
AcDbEntity
8
back
6
ByLayer
62
256
370
-1
100
AcDbCircle
10
64.7264973081
20
20.0705080757
40
2
100
AcDbArc
50
330
51
30
0
LINE
5
6C
100
AcDbEntity
8
back
6
ByLayer
62
256
370
-1
100
AcDbLine
10
66.4585481157
20
21.0705080757
11
64.3452994616
21
24.7307621135
0
LINE
5
6D
100
AcDbEntity
8
back
6
ByLayer
62
256
370
-1
100
AcDbLine
10
58.3867513459
20
25.7307621135
11
62.6132486541
21
25.7307621135
0
ARC
5
6E
100
AcDbEntity
8
back
6
ByLayer
62
256
370
-1
100
AcDbCircle
10
62.6132486541
20
23.7307621135
40
2
100
AcDbArc
50
30
51
90
0
ARC
5
6F
100
AcDbEntity
8
back
6
ByLayer
62
256
370
-1
100
AcDbCircle
10
43.3867513459
20
32.3910161514
40
2
100
AcDbArc
50
90
51
150
0
LINE
5
70
100
AcDbEntity
8
back
6
ByLayer
62
256
370
-1
100
AcDbLine
10
41.6547005384
20
33.3910161514
11
39.5414518843
21
29.7307621135
0
ARC
5
71
100
AcDbEntity
8
back
6
ByLayer
62
256
370
-1
100
AcDbCircle
10
41.2735026919
20
28.7307621135
40
2
100
AcDbArc
50
150
51
210
0
LINE
5
72
100
AcDbEntity
8
back
6
ByLayer
62
256
370
-1
100
AcDbLine
10
41.6547005384
20
24.0705080757
11
39.5414518843
21
27.7307621135
0
ARC
5
73
100
AcDbEntity
8
back
6
ByLayer
62
256
370
-1
100
AcDbCircle
10
43.3867513459
20
25.0705080757
40
2
100
AcDbArc
50
210
51
270
0
LINE
5
74
100
AcDbEntity
8
back
6
ByLayer
62
256
370
-1
100
AcDbLine
10
43.3867513459
20
23.0705080757
11
47.6132486541
21
23.0705080757
0
ARC
5
75
100
AcDbEntity
8
back
6
ByLayer
62
256
370
-1
100
AcDbCircle
10
47.6132486541
20
25.0705080757
40
2
100
AcDbArc
50
270
51
330
0
LINE
5
76
100
AcDbEntity
8
back
6
ByLayer
62
256
370
-1
100
AcDbLine
10
51.4585481157
20
27.7307621135
11
49.3452994616
21
24.0705080757
0
ARC
5
77
100
AcDbEntity
8
back
6
ByLayer
62
256
370
-1
100
AcDbCircle
10
49.7264973081
20
28.7307621135
40
2
100
AcDbArc
50
330
51
30
0
LINE
5
78
100
AcDbEntity
8
back
6
ByLayer
62
256
370
-1
100
AcDbLine
10
51.4585481157
20
29.7307621135
11
49.3452994616
21
33.3910161514
0
LINE
5
79
100
AcDbEntity
8
back
6
ByLayer
62
256
370
-1
100
AcDbLine
10
43.3867513459
20
34.3910161514
11
47.6132486541
21
34.3910161514
0
ARC
5
7A
100
AcDbEntity
8
back
6
ByLayer
62
256
370
-1
100
AcDbCircle
10
47.6132486541
20
32.3910161514
40
2
100
AcDbArc
50
30
51
90
0
ARC
5
7B
100
AcDbEntity
8
back
6
ByLayer
62
256
370
-1
100
AcDbCircle
10
28.3867513459
20
41.0512701892
40
2
100
AcDbArc
50
90
51
150
0
LINE
5
7C
100
AcDbEntity
8
back
6
ByLayer
62
256
370
-1
100
AcDbLine
10
26.6547005384
20
42.0512701892
11
24.5414518843
21
38.3910161514
0
ARC
5
7D
100
AcDbEntity
8
back
6
ByLayer
62
256
370
-1
100
AcDbCircle
10
26.2735026919
20
37.3910161514
40
2
100
AcDbArc
50
150
51
210
0
LINE
5
7E
100
AcDbEntity
8
back
6
ByLayer
62
256
370
-1
100
AcDbLine
10
26.6547005384
20
32.7307621135
11
24.5414518843
21
36.3910161514
0
ARC
5
7F
100
AcDbEntity
8
back
6
ByLayer
62
256
370
-1
100
AcDbCircle
10
28.3867513459
20
33.7307621135
40
2
100
AcDbArc
50
210
51
270
0
LINE
5
80
100
AcDbEntity
8
back
6
ByLayer
62
256
370
-1
100
AcDbLine
10
28.3867513459
20
31.7307621135
11
32.6132486541
21
31.7307621135
0
ARC
5
81
100
AcDbEntity
8
back
6
ByLayer
62
256
370
-1
100
AcDbCircle
10
32.6132486541
20
33.7307621135
40
2
100
AcDbArc
50
270
51
330
0
LINE
5
82
100
AcDbEntity
8
back
6
ByLayer
62
256
370
-1
100
AcDbLine
10
36.4585481157
20
36.3910161514
11
34.3452994616
21
32.7307621135
0
ARC
5
83
100
AcDbEntity
8
back
6
ByLayer
62
256
370
-1
100
AcDbCircle
10
34.7264973081
20
37.3910161514
40
2
100
AcDbArc
50
330
51
30
0
LINE
5
84
100
AcDbEntity
8
back
6
ByLayer
62
256
370
-1
100
AcDbLine
10
36.4585481157
20
38.3910161514
11
34.3452994616
21
42.0512701892
0
LINE
5
85
100
AcDbEntity
8
back
6
ByLayer
62
256
370
-1
100
AcDbLine
10
28.3867513459
20
43.0512701892
11
32.6132486541
21
43.0512701892
0
ARC
5
86
100
AcDbEntity
8
back
6
ByLayer
62
256
370
-1
100
AcDbCircle
10
32.6132486541
20
41.0512701892
40
2
100
AcDbArc
50
30
51
90
0
ARC
5
87
100
AcDbEntity
8
back
6
ByLayer
62
256
370
-1
100
AcDbCircle
10
58.3867513459
20
41.0512701892
40
2
100
AcDbArc
50
90
51
150
0
LINE
5
88
100
AcDbEntity
8
back
6
ByLayer
62
256
370
-1
100
AcDbLine
10
56.6547005384
20
42.0512701892
11
54.5414518843
21
38.3910161514
0
ARC
5
89
100
AcDbEntity
8
back
6
ByLayer
62
256
370
-1
100
AcDbCircle
10
56.2735026919
20
37.3910161514
40
2
100
AcDbArc
50
150
51
210
0
LINE
5
8A
100
AcDbEntity
8
back
6
ByLayer
62
256
370
-1
100
AcDbLine
10
56.6547005384
20
32.7307621135
11
54.5414518843
21
36.3910161514
0
ARC
5
8B
100
AcDbEntity
8
back
6
ByLayer
62
256
370
-1
100
AcDbCircle
10
58.3867513459
20
33.7307621135
40
2
100
AcDbArc
50
210
51
270
0
LINE
5
8C
100
AcDbEntity
8
back
6
ByLayer
62
256
370
-1
100
AcDbLine
10
58.3867513459
20
31.7307621135
11
62.6132486541
21
31.7307621135
0
ARC
5
8D
100
AcDbEntity
8
back
6
ByLayer
62
256
370
-1
100
AcDbCircle
10
62.6132486541
20
33.7307621135
40
2
100
AcDbArc
50
270
51
330
0
LINE
5
8E
100
AcDbEntity
8
back
6
ByLayer
62
256
370
-1
100
AcDbLine
10
66.4585481157
20
36.3910161514
11
64.3452994616
21
32.7307621135
0
ARC
5
8F
100
AcDbEntity
8
back
6
ByLayer
62
256
370
-1
100
AcDbCircle
10
64.7264973081
20
37.3910161514
40
2
100
AcDbArc
50
330
51
30
0
LINE
5
90
100
AcDbEntity
8
back
6
ByLayer
62
256
370
-1
100
AcDbLine
10
66.4585481157
20
38.3910161514
11
64.3452994616
21
42.0512701892
0
LINE
5
91
100
AcDbEntity
8
back
6
ByLayer
62
256
370
-1
100
AcDbLine
10
58.3867513459
20
43.0512701892
11
62.6132486541
21
43.0512701892
0
ARC
5
92
100
AcDbEntity
8
back
6
ByLayer
62
256
370
-1
100
AcDbCircle
10
62.6132486541
20
41.0512701892
40
2
100
AcDbArc
50
30
51
90
0
ARC
5
93
100
AcDbEntity
8
back
6
ByLayer
62
256
370
-1
100
AcDbCircle
10
43.3867513459
20
49.7115242271
40
2
100
AcDbArc
50
90
51
150
0
LINE
5
94
100
AcDbEntity
8
back
6
ByLayer
62
256
370
-1
100
AcDbLine
10
41.6547005384
20
50.7115242271
11
39.5414518843
21
47.0512701892
0
ARC
5
95
100
AcDbEntity
8
back
6
ByLayer
62
256
370
-1
100
AcDbCircle
10
41.2735026919
20
46.0512701892
40
2
100
AcDbArc
50
150
51
210
0
LINE
5
96
100
AcDbEntity
8
back
6
ByLayer
62
256
370
-1
100
AcDbLine
10
41.6547005384
20
41.3910161514
11
39.5414518843
21
45.0512701892
0
ARC
5
97
100
AcDbEntity
8
back
6
ByLayer
62
256
370
-1
100
AcDbCircle
10
43.3867513459
20
42.3910161514
40
2
100
AcDbArc
50
210
51
270
0
LINE
5
98
100
AcDbEntity
8
back
6
ByLayer
62
256
370
-1
100
AcDbLine
10
43.3867513459
20
40.3910161514
11
47.6132486541
21
40.3910161514
0
ARC
5
99
100
AcDbEntity
8
back
6
ByLayer
62
256
370
-1
100
AcDbCircle
10
47.6132486541
20
42.3910161514
40
2
100
AcDbArc
50
270
51
330
0
LINE
5
9A
100
AcDbEntity
8
back
6
ByLayer
62
256
370
-1
100
AcDbLine
10
51.4585481157
20
45.0512701892
11
49.3452994616
21
41.3910161514
0
ARC
5
9B
100
AcDbEntity
8
back
6
ByLayer
62
256
370
-1
100
AcDbCircle
10
49.7264973081
20
46.0512701892
40
2
100
AcDbArc
50
330
51
30
0
LINE
5
9C
100
AcDbEntity
8
back
6
ByLayer
62
256
370
-1
100
AcDbLine
10
51.4585481157
20
47.0512701892
11
49.3452994616
21
50.7115242271
0
LINE
5
9D
100
AcDbEntity
8
back
6
ByLayer
62
256
370
-1
100
AcDbLine
10
43.3867513459
20
51.7115242271
11
47.6132486541
21
51.7115242271
0
ARC
5
9E
100
AcDbEntity
8
back
6
ByLayer
62
256
370
-1
100
AcDbCircle
10
47.6132486541
20
49.7115242271
40
2
100
AcDbArc
50
30
51
90
0
ARC
5
9F
100
AcDbEntity
8
back
6
ByLayer
62
256
370
-1
100
AcDbCircle
10
28.3867513459
20
58.3717782649
40
2
100
AcDbArc
50
90
51
150
0
LINE
5
A0
100
AcDbEntity
8
back
6
ByLayer
62
256
370
-1
100
AcDbLine
10
26.6547005384
20
59.3717782649
11
24.5414518843
21
55.7115242271
0
ARC
5
A1
100
AcDbEntity
8
back
6
ByLayer
62
256
370
-1
100
AcDbCircle
10
26.2735026919
20
54.7115242271
40
2
100
AcDbArc
50
150
51
210
0
LINE
5
A2
100
AcDbEntity
8
back
6
ByLayer
62
256
370
-1
100
AcDbLine
10
26.6547005384
20
50.0512701892
11
24.5414518843
21
53.7115242271
0
ARC
5
A3
100
AcDbEntity
8
back
6
ByLayer
62
256
370
-1
100
AcDbCircle
10
28.3867513459
20
51.0512701892
40
2
100
AcDbArc
50
210
51
270
0
LINE
5
A4
100
AcDbEntity
8
back
6
ByLayer
62
256
370
-1
100
AcDbLine
10
28.3867513459
20
49.0512701892
11
32.6132486541
21
49.0512701892
0
ARC
5
A5
100
AcDbEntity
8
back
6
ByLayer
62
256
370
-1
100
AcDbCircle
10
32.6132486541
20
51.0512701892
40
2
100
AcDbArc
50
270
51
330
0
LINE
5
A6
100
AcDbEntity
8
back
6
ByLayer
62
256
370
-1
100
AcDbLine
10
36.4585481157
20
53.7115242271
11
34.3452994616
21
50.0512701892
0
ARC
5
A7
100
AcDbEntity
8
back
6
ByLayer
62
256
370
-1
100
AcDbCircle
10
34.7264973081
20
54.7115242271
40
2
100
AcDbArc
50
330
51
30
0
LINE
5
A8
100
AcDbEntity
8
back
6
ByLayer
62
256
370
-1
100
AcDbLine
10
36.4585481157
20
55.7115242271
11
34.3452994616
21
59.3717782649
0
LINE
5
A9
100
AcDbEntity
8
back
6
ByLayer
62
256
370
-1
100
AcDbLine
10
28.3867513459
20
60.3717782649
11
32.6132486541
21
60.3717782649
0
ARC
5
AA
100
AcDbEntity
8
back
6
ByLayer
62
256
370
-1
100
AcDbCircle
10
32.6132486541
20
58.3717782649
40
2
100
AcDbArc
50
30
51
90
0
ARC
5
AB
100
AcDbEntity
8
back
6
ByLayer
62
256
370
-1
100
AcDbCircle
10
58.3867513459
20
58.3717782649
40
2
100
AcDbArc
50
90
51
150
0
LINE
5
AC
100
AcDbEntity
8
back
6
ByLayer
62
256
370
-1
100
AcDbLine
10
56.6547005384
20
59.3717782649
11
54.5414518843
21
55.7115242271
0
ARC
5
AD
100
AcDbEntity
8
back
6
ByLayer
62
256
370
-1
100
AcDbCircle
10
56.2735026919
20
54.7115242271
40
2
100
AcDbArc
50
150
51
210
0
LINE
5
AE
100
AcDbEntity
8
back
6
ByLayer
62
256
370
-1
100
AcDbLine
10
56.6547005384
20
50.0512701892
11
54.5414518843
21
53.7115242271
0
ARC
5
AF
100
AcDbEntity
8
back
6
ByLayer
62
256
370
-1
100
AcDbCircle
10
58.3867513459
20
51.0512701892
40
2
100
AcDbArc
50
210
51
270
0
LINE
5
B0
100
AcDbEntity
8
back
6
ByLayer
62
256
370
-1
100
AcDbLine
10
58.3867513459
20
49.0512701892
11
62.6132486541
21
49.0512701892
0
ARC
5
B1
100
AcDbEntity
8
back
6
ByLayer
62
256
370
-1
100
AcDbCircle
10
62.6132486541
20
51.0512701892
40
2
100
AcDbArc
50
270
51
330
0
LINE
5
B2
100
AcDbEntity
8
back
6
ByLayer
62
256
370
-1
100
AcDbLine
10
66.4585481157
20
53.7115242271
11
64.3452994616
21
50.0512701892
0
ARC
5
B3
100
AcDbEntity
8
back
6
ByLayer
62
256
370
-1
100
AcDbCircle
10
64.7264973081
20
54.7115242271
40
2
100
AcDbArc
50
330
51
30
0
LINE
5
B4
100
AcDbEntity
8
back
6
ByLayer
62
256
370
-1
100
AcDbLine
10
66.4585481157
20
55.7115242271
11
64.3452994616
21
59.3717782649
0
LINE
5
B5
100
AcDbEntity
8
back
6
ByLayer
62
256
370
-1
100
AcDbLine
10
58.3867513459
20
60.3717782649
11
62.6132486541
21
60.3717782649
0
ARC
5
B6
100
AcDbEntity
8
back
6
ByLayer
62
256
370
-1
100
AcDbCircle
10
62.6132486541
20
58.3717782649
40
2
100
AcDbArc
50
30
51
90
0
ARC
5
B7
100
AcDbEntity
8
back
6
ByLayer
62
256
370
-1
100
AcDbCircle
10
43.3867513459
20
67.0320323028
40
2
100
AcDbArc
50
90
51
150
0
LINE
5
B8
100
AcDbEntity
8
back
6
ByLayer
62
256
370
-1
100
AcDbLine
10
41.6547005384
20
68.0320323028
11
39.5414518843
21
64.3717782649
0
ARC
5
B9
100
AcDbEntity
8
back
6
ByLayer
62
256
370
-1
100
AcDbCircle
10
41.2735026919
20
63.3717782649
40
2
100
AcDbArc
50
150
51
210
0
LINE
5
BA
100
AcDbEntity
8
back
6
ByLayer
62
256
370
-1
100
AcDbLine
10
41.6547005384
20
58.7115242271
11
39.5414518843
21
62.3717782649
0
ARC
5
BB
100
AcDbEntity
8
back
6
ByLayer
62
256
370
-1
100
AcDbCircle
10
43.3867513459
20
59.7115242271
40
2
100
AcDbArc
50
210
51
270
0
LINE
5
BC
100
AcDbEntity
8
back
6
ByLayer
62
256
370
-1
100
AcDbLine
10
43.3867513459
20
57.7115242271
11
47.6132486541
21
57.7115242271
0
ARC
5
BD
100
AcDbEntity
8
back
6
ByLayer
62
256
370
-1
100
AcDbCircle
10
47.6132486541
20
59.7115242271
40
2
100
AcDbArc
50
270
51
330
0
LINE
5
BE
100
AcDbEntity
8
back
6
ByLayer
62
256
370
-1
100
AcDbLine
10
51.4585481157
20
62.3717782649
11
49.3452994616
21
58.7115242271
0
ARC
5
BF
100
AcDbEntity
8
back
6
ByLayer
62
256
370
-1
100
AcDbCircle
10
49.7264973081
20
63.3717782649
40
2
100
AcDbArc
50
330
51
30
0
LINE
5
C0
100
AcDbEntity
8
back
6
ByLayer
62
256
370
-1
100
AcDbLine
10
51.4585481157
20
64.3717782649
11
49.3452994616
21
68.0320323028
0
LINE
5
C1
100
AcDbEntity
8
back
6
ByLayer
62
256
370
-1
100
AcDbLine
10
43.3867513459
20
69.0320323028
11
47.6132486541
21
69.0320323028
0
ARC
5
C2
100
AcDbEntity
8
back
6
ByLayer
62
256
370
-1
100
AcDbCircle
10
47.6132486541
20
67.0320323028
40
2
100
AcDbArc
50
30
51
90
0
LINE
5
C3
100
AcDbEntity
8
back
6
ByLayer
62
256
370
-1
100
AcDbLine
10
15.5
20
87.57612
11
17.5
21
87.57612
0
LINE
5
C4
100
AcDbEntity
8
back
6
ByLayer
62
256
370
-1
100
AcDbLine
10
17.5
20
87.57612
11
17.5
21
72.09212
0
LINE
5
C5
100
AcDbEntity
8
back
6
ByLayer
62
256
370
-1
100
AcDbLine
10
17.5
20
72.09212
11
15.5
21
72.09212
0
LINE
5
C6
100
AcDbEntity
8
back
6
ByLayer
62
256
370
-1
100
AcDbLine
10
15.5
20
72.09212
11
15.5
21
87.57612
0
LINE
5
C7
100
AcDbEntity
8
back
6
ByLayer
62
256
370
-1
100
AcDbLine
10
15.5
20
117.57612
11
17.5
21
117.57612
0
LINE
5
C8
100
AcDbEntity
8
back
6
ByLayer
62
256
370
-1
100
AcDbLine
10
17.5
20
117.57612
11
17.5
21
102.57612
0
LINE
5
C9
100
AcDbEntity
8
back
6
ByLayer
62
256
370
-1
100
AcDbLine
10
17.5
20
102.57612
11
15.5
21
102.57612
0
LINE
5
CA
100
AcDbEntity
8
back
6
ByLayer
62
256
370
-1
100
AcDbLine
10
15.5
20
102.57612
11
15.5
21
117.57612
0
LINE
5
CB
100
AcDbEntity
8
back
6
ByLayer
62
256
370
-1
100
AcDbLine
10
73.5
20
117.57612
11
75.5
21
117.57612
0
LINE
5
CC
100
AcDbEntity
8
back
6
ByLayer
62
256
370
-1
100
AcDbLine
10
75.5
20
117.57612
11
75.5
21
102.57612
0
LINE
5
CD
100
AcDbEntity
8
back
6
ByLayer
62
256
370
-1
100
AcDbLine
10
75.5
20
102.57612
11
73.5
21
102.57612
0
LINE
5
CE
100
AcDbEntity
8
back
6
ByLayer
62
256
370
-1
100
AcDbLine
10
73.5
20
102.57612
11
73.5
21
117.57612
0
LINE
5
CF
100
AcDbEntity
8
back
6
ByLayer
62
256
370
-1
100
AcDbLine
10
73.5
20
87.57612
11
75.5
21
87.57612
0
LINE
5
D0
100
AcDbEntity
8
back
6
ByLayer
62
256
370
-1
100
AcDbLine
10
75.5
20
87.57612
11
75.5
21
72.09212
0
LINE
5
D1
100
AcDbEntity
8
back
6
ByLayer
62
256
370
-1
100
AcDbLine
10
75.5
20
72.09212
11
73.5
21
72.09212
0
LINE
5
D2
100
AcDbEntity
8
back
6
ByLayer
62
256
370
-1
100
AcDbLine
10
73.5
20
72.09212
11
73.5
21
87.57612
0
ENDSEC
0
SECTION
2
OBJECTS
0
DICTIONARY
5
C
330
0
100
AcDbDictionary
281
1
3
ACAD_GROUP
350
D
0
DICTIONARY
5
D
330
C
100
AcDbDictionary
281
1
0
ENDSEC
0
EOF
