999
dxfrw 0.5.10
0
SECTION
2
HEADER
9
$ACADVER
1
AC1021
9
$HANDSEED
5
20000
9
$DWGCODEPAGE
3
ANSI_1252
9
$INSBASE
10
0
20
0
30
0
9
$EXTMIN
10
0
20
-100
30
0
9
$EXTMAX
10
300
20
200
30
0
9
$LIMMIN
10
0
20
0
9
$LIMMAX
10
420
20
297
9
$ORTHOMODE
70
0
9
$LTSCALE
40
1
9
$TEXTSTYLE
7
STANDARD
9
$CLAYER
8
0
9
$DIMASZ
40
2.5
9
$DIMLFAC
40
1
9
$DIMSCALE
40
1
9
$DIMEXO
40
0.625
9
$DIMEXE
40
1.25
9
$DIMTXT
40
2.5
9
$DIMTSZ
40
0
9
$DIMAUNIT
70
0
9
$DIMADEC
70
0
9
$DIMLUNIT
70
2
9
$DIMSTYLE
2
STANDARD
9
$DIMGAP
40
0.625
9
$DIMTIH
70
0
9
$LUNITS
70
2
9
$LUPREC
70
4
9
$AUNITS
70
0
9
$AUPREC
70
2
9
$SPLINESEGS
70
8
9
$SNAPSTYLE
70
0
9
$PINSBASE
10
0
20
0
30
0
9
$PLIMMIN
10
0
20
0
9
$PLIMMAX
10
210
20
297
9
$INSUNITS
70
4
9
$PSVPSCALE
40
1
0
ENDSEC
0
SECTION
2
CLASSES
0
ENDSEC
0
SECTION
2
TABLES
0
TABLE
2
VPORT
5
8
330
0
100
AcDbSymbolTable
70
1
0
VPORT
5
31
330
2
100
AcDbSymbolTableRecord
100
AcDbViewportTableRecord
2
*ACTIVE
70
0
10
0
20
0
11
1
21
1
12
205.636024475
22
218.152999878
13
0
23
0
14
10
24
10
15
10
25
10
16
0
26
0
36
1
17
0
27
0
37
0
40
802.278518677
41
0.687964338782
42
50
43
0
44
0
50
0
51
0
71
0
72
100
73
1
74
3
75
0
76
1
77
0
78
0
281
0
65
1
110
0
120
0
130
0
111
1
121
0
131
0
112
0
122
1
132
0
79
0
146
0
348
10020
60
7
61
5
292
1
282
1
141
0
142
0
63
250
421
3358443
0
ENDTAB
0
TABLE
2
LTYPE
5
5
330
0
100
AcDbSymbolTable
70
4
0
LTYPE
5
14
330
5
100
AcDbSymbolTableRecord
100
AcDbLinetypeTableRecord
2
ByBlock
70
0
3

72
65
73
0
40
0
0
LTYPE
5
15
330
5
100
AcDbSymbolTableRecord
100
AcDbLinetypeTableRecord
2
ByLayer
70
0
3

72
65
73
0
40
0
0
LTYPE
5
16
330
5
100
AcDbSymbolTableRecord
100
AcDbLinetypeTableRecord
2
Continuous
70
0
3
Solid line
72
65
73
0
40
0
0
LTYPE
5
32
330
5
100
AcDbSymbolTableRecord
100
AcDbLinetypeTableRecord
2
DOT
70
0
3
Dot . . . . . . . . . . . . . . . . . . . . . .
72
65
73
2
40
6.35
49
0
74
0
49
-6.35
74
0
0
LTYPE
5
33
330
5
100
AcDbSymbolTableRecord
100
AcDbLinetypeTableRecord
2
DOT2
70
0
3
Dot (.5x) .....................................
72
65
73
2
40
3.175
49
0
74
0
49
-3.175
74
0
0
LTYPE
5
34
330
5
100
AcDbSymbolTableRecord
100
AcDbLinetypeTableRecord
2
DOTX2
70
0
3
Dot (2x) .  .  .  .  .  .  .  .  .  .  .  .  .
72
65
73
2
40
12.7
49
0
74
0
49
-12.7
74
0
0
LTYPE
5
35
330
5
100
AcDbSymbolTableRecord
100
AcDbLinetypeTableRecord
2
DASHED
70
0
3
Dot . . . . . . . . . . . . . . . . . . . . . .
72
65
73
2
40
19.05
49
12.7
74
0
49
-6.35
74
0
0
LTYPE
5
36
330
5
100
AcDbSymbolTableRecord
100
AcDbLinetypeTableRecord
2
DASHED2
70
0
3
Dashed (.5x) _ _ _ _ _ _ _ _ _ _ _ _ _ _ _ _ _
72
65
73
2
40
9.525
49
6.35
74
0
49
-3.175
74
0
0
LTYPE
5
37
330
5
100
AcDbSymbolTableRecord
100
AcDbLinetypeTableRecord
2
DASHEDX2
70
0
3
Dashed (2x) ____  ____  ____  ____  ____  ___
72
65
73
2
40
38.1
49
25.4
74
0
49
-12.7
74
0
0
LTYPE
5
38
330
5
100
AcDbSymbolTableRecord
100
AcDbLinetypeTableRecord
2
DASHDOT
70
0
3
Dash dot __ . __ . __ . __ . __ . __ . __ . __
72
65
73
4
40
25.4
49
12.7
74
0
49
-6.35
74
0
49
0
74
0
49
-6.35
74
0
0
LTYPE
5
39
330
5
100
AcDbSymbolTableRecord
100
AcDbLinetypeTableRecord
2
DASHDOT2
70
0
3
Dash dot (.5x) _._._._._._._._._._._._._._._.
72
65
73
4
40
12.7
49
6.35
74
0
49
-3.175
74
0
49
0
74
0
49
-3.175
74
0
0
LTYPE
5
3A
330
5
100
AcDbSymbolTableRecord
100
AcDbLinetypeTableRecord
2
DASHDOTX2
70
0
3
Dash dot (2x) ____  .  ____  .  ____  .  ___
72
65
73
4
40
50.8
49
25.4
74
0
49
-12.7
74
0
49
0
74
0
49
-12.7
74
0
0
LTYPE
5
3B
330
5
100
AcDbSymbolTableRecord
100
AcDbLinetypeTableRecord
2
DIVIDE
70
0
3
Divide ____ . . ____ . . ____ . . ____ . . ____
72
65
73
6
40
31.75
49
12.7
74
0
49
-6.35
74
0
49
0
74
0
49
-6.35
74
0
49
0
74
0
49
-6.35
74
0
0
LTYPE
5
3C
330
5
100
AcDbSymbolTableRecord
100
AcDbLinetypeTableRecord
2
DIVIDE2
70
0
3
Divide (.5x) __..__..__..__..__..__..__..__.._
72
65
73
6
40
15.875
49
6.35
74
0
49
-3.175
74
0
49
0
74
0
49
-3.175
74
0
49
0
74
0
49
-3.175
74
0
0
LTYPE
5
3D
330
5
100
AcDbSymbolTableRecord
100
AcDbLinetypeTableRecord
2
DIVIDEX2
70
0
3
Divide (2x) ________  .  .  ________  .  .  _
72
65
73
6
40
63.5
49
25.4
74
0
49
-12.7
74
0
49
0
74
0
49
-12.7
74
0
49
0
74
0
49
-12.7
74
0
0
LTYPE
5
3E
330
5
100
AcDbSymbolTableRecord
100
AcDbLinetypeTableRecord
2
BORDER
70
0
3
Border __ __ . __ __ . __ __ . __ __ . __ __ .
72
65
73
6
40
44.45
49
12.7
74
0
49
-6.35
74
0
49
12.7
74
0
49
-6.35
74
0
49
0
74
0
49
-6.35
74
0
0
LTYPE
5
3F
330
5
100
AcDbSymbolTableRecord
100
AcDbLinetypeTableRecord
2
BORDER2
70
0
3
Border (.5x) __.__.__.__.__.__.__.__.__.__.__.
72
65
73
6
40
22.225
49
6.35
74
0
49
-3.175
74
0
49
6.35
74
0
49
-3.175
74
0
49
0
74
0
49
-3.175
74
0
0
LTYPE
5
40
330
5
100
AcDbSymbolTableRecord
100
AcDbLinetypeTableRecord
2
BORDERX2
70
0
3
Border (2x) ____  ____  .  ____  ____  .  ___
72
65
73
6
40
88.9
49
25.4
74
0
49
-12.7
74
0
49
25.4
74
0
49
-12.7
74
0
49
0
74
0
49
-12.7
74
0
0
LTYPE
5
41
330
5
100
AcDbSymbolTableRecord
100
AcDbLinetypeTableRecord
2
CENTER
70
0
3
Center ____ _ ____ _ ____ _ ____ _ ____ _ ____
72
65
73
4
40
50.8
49
31.75
74
0
49
-6.35
74
0
49
6.35
74
0
49
-6.35
74
0
0
LTYPE
5
42
330
5
100
AcDbSymbolTableRecord
100
AcDbLinetypeTableRecord
2
CENTER2
70
0
3
Center (.5x) ___ _ ___ _ ___ _ ___ _ ___ _ ___
72
65
73
4
40
28.575
49
19.05
74
0
49
-3.175
74
0
49
3.175
74
0
49
-3.175
74
0
0
LTYPE
5
43
330
5
100
AcDbSymbolTableRecord
100
AcDbLinetypeTableRecord
2
CENTERX2
70
0
3
Center (2x) ________  __  ________  __  _____
72
65
73
4
40
101.6
49
63.5
74
0
49
-12.7
74
0
49
12.7
74
0
49
-12.7
74
0
0
ENDTAB
0
TABLE
2
LAYER
5
2
330
0
100
AcDbSymbolTable
70
1
0
LAYER
5
10
330
2
100
AcDbSymbolTableRecord
100
AcDbLayerTableRecord
2
0
70
0
62
7
6
CONTINUOUS
370
0
390
F
0
LAYER
5
44
330
2
100
AcDbSymbolTableRecord
100
AcDbLayerTableRecord
2
back
70
0
62
7
6
CONTINUOUS
370
0
390
F
0
LAYER
5
45
330
2
100
AcDbSymbolTableRecord
100
AcDbLayerTableRecord
2
bulkhead
70
0
62
7
6
CONTINUOUS
370
0
390
F
0
LAYER
5
46
330
2
100
AcDbSymbolTableRecord
100
AcDbLayerTableRecord
2
front
70
0
62
7
6
CONTINUOUS
370
0
390
F
0
LAYER
5
47
330
2
100
AcDbSymbolTableRecord
100
AcDbLayerTableRecord
2
side
70
0
62
7
6
CONTINUOUS
370
0
390
F
0
ENDTAB
0
TABLE
2
STYLE
5
3
330
0
100
AcDbSymbolTable
70
3
0
STYLE
5
48
330
2
100
AcDbSymbolTableRecord
100
AcDbTextStyleTableRecord
2
Standard
70
0
40
0
41
1
50
0
71
0
42
1
3
txt
4

0
ENDTAB
0
TABLE
2
VIEW
5
6
330
0
100
AcDbSymbolTable
70
0
0
ENDTAB
0
TABLE
2
UCS
5
7
330
0
100
AcDbSymbolTable
70
0
0
ENDTAB
0
TABLE
2
APPID
5
9
330
0
100
AcDbSymbolTable
70
1
0
APPID
5
12
330
9
100
AcDbSymbolTableRecord
100
AcDbRegAppTableRecord
2
ACAD
70
0
0
ENDTAB
0
TABLE
2
DIMSTYLE
5
A
330
0
100
AcDbSymbolTable
70
1
100
AcDbDimStyleTable
71
1
0
DIMSTYLE
105
49
330
A
100
AcDbSymbolTableRecord
100
AcDbDimStyleTableRecord
2
Standard
70
0
40
1
41
2.5
42
0.625
43
0.38
44
1.25
45
0
46
0
47
0
48
0
140
2.5
141
0.09
142
0
143
25.4
144
1
145
0
146
1
147
0.625
148
0
71
0
72
0
73
0
74
1
75
0
76
0
77
0
78
0
79
0
170
0
171
2
172
0
173
0
174
0
175
0
176
0
177
0
178
0
179
0
271
4
272
4
273
2
274
2
275
0
276
0
277
2
278
46
279
0
280
0
281
0
282
0
283
1
284
0
285
0
286
0
288
0
289
3
340
Standard
341

371
-2
372
-2
0
ENDTAB
0
TABLE
2
BLOCK_RECORD
5
1
330
0
100
AcDbSymbolTable
70
2
0
BLOCK_RECORD
5
1F
330
1
100
AcDbSymbolTableRecord
100
AcDbBlockTableRecord
2
*Model_Space
70
0
280
1
281
0
0
BLOCK_RECORD
5
1E
330
1
100
AcDbSymbolTableRecord
100
AcDbBlockTableRecord
2
*Paper_Space
70
0
280
1
281
0
0
BLOCK_RECORD
5
4A
330
1
100
AcDbSymbolTableRecord
100
AcDbBlockTableRecord
2
s
70
0
280
1
281
0
0
ENDTAB
0
ENDSEC
0
SECTION
2
BLOCKS
0
BLOCK
5
20
330
1F
100
AcDbEntity
8
0
100
AcDbBlockBegin
2
*Model_Space
70
0
10
0
20
0
30
0
3
*Model_Space
1

0
ENDBLK
5
21
330
1F
100
AcDbEntity
8
0
100
AcDbBlockEnd
0
BLOCK
5
1C
330
1B
100
AcDbEntity
8
0
100
AcDbBlockBegin
2
*Paper_Space
70
0
10
0
20
0
30
0
3
*Paper_Space
1

0
ENDBLK
5
1D
330
1F
100
AcDbEntity
8
0
100
AcDbBlockEnd
0
BLOCK
5
4B
330
4A
100
AcDbEntity
8
0
100
AcDbBlockBegin
2
s
70
0
10
0
20
0
3
s
1

0
LINE
5
4D
100
AcDbEntity
8
side
6
ByLayer
62
256
370
-1
100
AcDbLine
10
7.619502898
20
59.867522765
11
5.635507074
21
60.120031324
0
LINE
5
4E
100
AcDbEntity
8
side
6
ByLayer
62
256
370
-1
100
AcDbLine
10
5.635507074
20
60.120031324
11
3.741692879
21
45.240062648
0
LINE
5
4F
100
AcDbEntity
8
side
6
ByLayer
62
256
370
-1
100
AcDbLine
10
3.741692879
20
45.240062648
11
5.725688703
21
44.987554089
0
LINE
5
50
100
AcDbEntity
8
side
6
ByLayer
62
256
370
-1
100
AcDbLine
10
5.725688703
20
44.987554089
11
3.831874507
21
30.107585413
0
LINE
5
51
100
AcDbEntity
8
side
6
ByLayer
62
256
370
-1
100
AcDbLine
10
3.831874507
20
30.107585413
11
1.847878684
21
30.360093972
0
LINE
5
52
100
AcDbEntity
8
side
6
ByLayer
62
256
370
-1
100
AcDbLine
10
1.847878684
20
30.360093972
11
-0.045935511
21
15.480125297
0
LINE
5
53
100
AcDbEntity
8
side
6
ByLayer
62
256
370
-1
100
AcDbLine
10
-0.045935511
20
15.480125297
11
1.938060312
21
15.227616737
0
LINE
5
54
100
AcDbEntity
8
side
6
ByLayer
62
256
370
-1
100
AcDbLine
10
1.938060312
20
15.227616737
11
0
21
0
0
LINE
5
55
100
AcDbEntity
8
side
6
ByLayer
62
256
370
-1
100
AcDbLine
10
9.545454546
20
75
11
7.619502898
21
59.867522765
0
LINE
5
56
100
AcDbEntity
8
side
6
ByLayer
62
256
370
-1
100
AcDbLine
10
41.5014116223
20
59.941228041
11
43.5002804746
21
60.008483608
0
LINE
5
57
100
AcDbEntity
8
side
6
ByLayer
62
256
370
-1
100
AcDbLine
10
43.5002804746
20
60.008483608
11
44.0046972226
21
45.016967215
0
LINE
5
58
100
AcDbEntity
8
side
6
ByLayer
62
256
370
-1
100
AcDbLine
10
44.0046972226
20
45.016967215
11
42.0058283703
21
44.949711649
0
LINE
5
59
100
AcDbEntity
8
side
6
ByLayer
62
256
370
-1
100
AcDbLine
10
42.0058283703
20
44.949711649
11
42.5102451183
21
29.958195256
0
LINE
5
5A
100
AcDbEntity
8
side
6
ByLayer
62
256
370
-1
100
AcDbLine
10
42.5102451183
20
29.958195256
11
44.5091139706
21
30.025450823
0
LINE
5
5B
100
AcDbEntity
8
side
6
ByLayer
62
256
370
-1
100
AcDbLine
10
44.5091139706
20
30.025450823
11
45.0135307186
21
15.03393443
0
LINE
5
5C
100
AcDbEntity
8
side
6
ByLayer
62
256
370
-1
100
AcDbLine
10
45.0135307186
20
15.03393443
11
43.0146618663
21
14.966678864
0
LINE
5
5D
100
AcDbEntity
8
side
6
ByLayer
62
256
370
-1
100
AcDbLine
10
43.0146618663
20
14.966678864
11
43.5182429106
21
0
0
LINE
5
5E
100
AcDbEntity
8
side
6
ByLayer
62
256
370
-1
100
AcDbLine
10
40.9947319388
20
75
11
41.5014116223
21
59.941228041
0
LINE
5
5F
100
AcDbEntity
8
side
6
ByLayer
62
256
370
-1
100
AcDbLine
10
40.9947319388
20
75
11
9.545454546
21
75
0
LINE
5
60
100
AcDbEntity
8
side
6
ByLayer
62
256
370
-1
100
AcDbLine
10
0
20
0
11
43.5182429106
21
0
0
LINE
5
61
100
AcDbEntity
8
side
6
ByLayer
62
256
370
-1
100
AcDbLine
10
17.6403090914
20
40
11
29.6403090914
21
40
0
LINE
5
62
100
AcDbEntity
8
side
6
ByLayer
62
256
370
-1
100
AcDbLine
10
29.6403090914
20
40
11
29.6403090914
21
38
0
LINE
5
63
100
AcDbEntity
8
side
6
ByLayer
62
256
370
-1
100
AcDbLine
10
29.6403090914
20
38
11
17.6403090914
21
38
0
LINE
5
64
100
AcDbEntity
8
side
6
ByLayer
62
256
370
-1
100
AcDbLine
10
17.6403090914
20
38
11
17.6403090914
21
40
0
ENDBLK
5
4C
330
4A
100
AcDbEntity
8
0
100
AcDbBlockEnd
0
ENDSEC
0
SECTION
2
ENTITIES
0
CIRCLE
5
65
100
AcDbEntity
8
back
6
ByLayer
62
256
370
-1
100
AcDbCircle
10
10
20
120
40
1.5
0
CIRCLE
5
66
100
AcDbEntity
8
back
6
ByLayer
62
256
370
-1
100
AcDbCircle
10
90
20
120
40
1.5
0
CIRCLE
5
67
100
AcDbEntity
8
back
6
ByLayer
62
256
370
-1
100
AcDbCircle
10
90
20
10
40
1.5
0
CIRCLE
5
68
100
AcDbEntity
8
back
6
ByLayer
62
256
370
-1
100
AcDbCircle
10
10
20
10
40
1.5
0
ARC
5
69
100
AcDbEntity
8
back
6
ByLayer
62
256
370
-1
100
AcDbCircle
10
10
20
120
40
5
100
AcDbArc
50
90
51
180
0
LINE
5
6A
100
AcDbEntity
8
back
6
ByLayer
62
256
370
-1
100
AcDbLine
10
90
20
125
11
10
21
125
0
ARC
5
6B
100
AcDbEntity
8
back
6
ByLayer
62
256
370
-1
100
AcDbCircle
10
90
20
120
40
5
100
AcDbArc
50
0
51
90
0
LINE
5
6C
100
AcDbEntity
8
back
6
ByLayer
62
256
370
-1
100
AcDbLine
10
95
20
10
11
95
21
120
0
ARC
5
6D
100
AcDbEntity
8
back
6
ByLayer
62
256
370
-1
100
AcDbCircle
10
90
20
10
40
5
100
AcDbArc
50
270
51
0
0
LINE
5
6E
100
AcDbEntity
8
back
6
ByLayer
62
256
370
-1
100
AcDbLine
10
5
20
120
11
5
21
10
0
LINE
5
6F
100
AcDbEntity
8
back
6
ByLayer
62
256
370
-1
100
AcDbLine
10
10
20
5
11
90
21
5
0
ARC
5
70
100
AcDbEntity
8
back
6
ByLayer
62
256
370
-1
100
AcDbCircle
10
10
20
10
40
5
100
AcDbArc
50
180
51
270
0
LINE
5
71
100
AcDbEntity
8
back
6
ByLayer
62
256
370
-1
100
AcDbLine
10
20
20
75
11
22
21
75
0
LINE
5
72
100
AcDbEntity
8
back
6
ByLayer
62
256
370
-1
100
AcDbLine
10
22
20
75
11
22
21
59.516
0
LINE
5
73
100
AcDbEntity
8
back
6
ByLayer
62
256
370
-1
100
AcDbLine
10
22
20
59.516
11
20
21
59.516
0
LINE
5
74
100
AcDbEntity
8
back
6
ByLayer
62
256
370
-1
100
AcDbLine
10
20
20
59.516
11
20
21
75
0
LINE
5
75
100
AcDbEntity
8
back
6
ByLayer
62
256
370
-1
100
AcDbLine
10
20
20
105
11
22
21
105
0
LINE
5
76
100
AcDbEntity
8
back
6
ByLayer
62
256
370
-1
100
AcDbLine
10
22
20
105
11
22
21
90
0
LINE
5
77
100
AcDbEntity
8
back
6
ByLayer
62
256
370
-1
100
AcDbLine
10
22
20
90
11
20
21
90
0
LINE
5
78
100
AcDbEntity
8
back
6
ByLayer
62
256
370
-1
100
AcDbLine
10
20
20
90
11
20
21
105
0
LINE
5
79
100
AcDbEntity
8
back
6
ByLayer
62
256
370
-1
100
AcDbLine
10
78
20
105
11
80
21
105
0
LINE
5
7A
100
AcDbEntity
8
back
6
ByLayer
62
256
370
-1
100
AcDbLine
10
80
20
105
11
80
21
90
0
LINE
5
7B
100
AcDbEntity
8
back
6
ByLayer
62
256
370
-1
100
AcDbLine
10
80
20
90
11
78
21
90
0
LINE
5
7C
100
AcDbEntity
8
back
6
ByLayer
62
256
370
-1
100
AcDbLine
10
78
20
90
11
78
21
105
0
LINE
5
7D
100
AcDbEntity
8
back
6
ByLayer
62
256
370
-1
100
AcDbLine
10
78
20
75
11
80
21
75
0
LINE
5
7E
100
AcDbEntity
8
back
6
ByLayer
62
256
370
-1
100
AcDbLine
10
80
20
75
11
80
21
59.516
0
LINE
5
7F
100
AcDbEntity
8
back
6
ByLayer
62
256
370
-1
100
AcDbLine
10
80
20
59.516
11
78
21
59.516
0
LINE
5
80
100
AcDbEntity
8
back
6
ByLayer
62
256
370
-1
100
AcDbLine
10
78
20
59.516
11
78
21
75
0
LINE
5
81
100
AcDbEntity
8
back
6
ByLayer
62
256
370
-1
100
AcDbLine
10
44
20
99.8387
11
56
21
99.8387
0
LINE
5
82
100
AcDbEntity
8
back
6
ByLayer
62
256
370
-1
100
AcDbLine
10
56
20
99.8387
11
56
21
97.8387
0
LINE
5
83
100
AcDbEntity
8
back
6
ByLayer
62
256
370
-1
100
AcDbLine
10
56
20
97.8387
11
44
21
97.8387
0
LINE
5
84
100
AcDbEntity
8
back
6
ByLayer
62
256
370
-1
100
AcDbLine
10
44
20
97.8387
11
44
21
99.8387
0
ARC
5
85
100
AcDbEntity
8
back
6
ByLayer
62
256
370
-1
100
AcDbCircle
10
32.8867513459
20
25.9807621135
40
2
100
AcDbArc
50
90
51
150
0
LINE
5
86
100
AcDbEntity
8
back
6
ByLayer
62
256
370
-1
100
AcDbLine
10
31.1547005384
20
26.9807621135
11
29.0414518843
21
23.3205080757
0
ARC
5
87
100
AcDbEntity
8
back
6
ByLayer
62
256
370
-1
100
AcDbCircle
10
30.7735026919
20
22.3205080757
40
2
100
AcDbArc
50
150
51
210
0
LINE
5
88
100
AcDbEntity
8
back
6
ByLayer
62
256
370
-1
100
AcDbLine
10
31.1547005384
20
17.6602540378
11
29.0414518843
21
21.3205080757
0
ARC
5
89
100
AcDbEntity
8
back
6
ByLayer
62
256
370
-1
100
AcDbCircle
10
32.8867513459
20
18.6602540378
40
2
100
AcDbArc
50
210
51
270
0
LINE
5
8A
100
AcDbEntity
8
back
6
ByLayer
62
256
370
-1
100
AcDbLine
10
32.8867513459
20
16.6602540378
11
37.1132486541
21
16.6602540378
0
ARC
5
8B
100
AcDbEntity
8
back
6
ByLayer
62
256
370
-1
100
AcDbCircle
10
37.1132486541
20
18.6602540378
40
2
100
AcDbArc
50
270
51
330
0
LINE
5
8C
100
AcDbEntity
8
back
6
ByLayer
62
256
370
-1
100
AcDbLine
10
40.9585481157
20
21.3205080757
11
38.8452994616
21
17.6602540378
0
ARC
5
8D
100
AcDbEntity
8
back
6
ByLayer
62
256
370
-1
100
AcDbCircle
10
39.2264973081
20
22.3205080757
40
2
100
AcDbArc
50
330
51
30
0
LINE
5
8E
100
AcDbEntity
8
back
6
ByLayer
62
256
370
-1
100
AcDbLine
10
40.9585481157
20
23.3205080757
11
38.8452994616
21
26.9807621135
0
LINE
5
8F
100
AcDbEntity
8
back
6
ByLayer
62
256
370
-1
100
AcDbLine
10
32.8867513459
20
27.9807621135
11
37.1132486541
21
27.9807621135
0
ARC
5
90
100
AcDbEntity
8
back
6
ByLayer
62
256
370
-1
100
AcDbCircle
10
37.1132486541
20
25.9807621135
40
2
100
AcDbArc
50
30
51
90
0
ARC
5
91
100
AcDbEntity
8
back
6
ByLayer
62
256
370
-1
100
AcDbCircle
10
62.8867513459
20
25.9807621135
40
2
100
AcDbArc
50
90
51
150
0
LINE
5
92
100
AcDbEntity
8
back
6
ByLayer
62
256
370
-1
100
AcDbLine
10
61.1547005384
20
26.9807621135
11
59.0414518843
21
23.3205080757
0
ARC
5
93
100
AcDbEntity
8
back
6
ByLayer
62
256
370
-1
100
AcDbCircle
10
60.7735026919
20
22.3205080757
40
2
100
AcDbArc
50
150
51
210
0
LINE
5
94
100
AcDbEntity
8
back
6
ByLayer
62
256
370
-1
100
AcDbLine
10
61.1547005384
20
17.6602540378
11
59.0414518843
21
21.3205080757
0
ARC
5
95
100
AcDbEntity
8
back
6
ByLayer
62
256
370
-1
100
AcDbCircle
10
62.8867513459
20
18.6602540378
40
2
100
AcDbArc
50
210
51
270
0
LINE
5
96
100
AcDbEntity
8
back
6
ByLayer
62
256
370
-1
100
AcDbLine
10
62.8867513459
20
16.6602540378
11
67.1132486541
21
16.6602540378
0
ARC
5
97
100
AcDbEntity
8
back
6
ByLayer
62
256
370
-1
100
AcDbCircle
10
67.1132486541
20
18.6602540378
40
2
100
AcDbArc
50
270
51
330
0
LINE
5
98
100
AcDbEntity
8
back
6
ByLayer
62
256
370
-1
100
AcDbLine
10
70.9585481157
20
21.3205080757
11
68.8452994616
21
17.6602540378
0
ARC
5
99
100
AcDbEntity
8
back
6
ByLayer
62
256
370
-1
100
AcDbCircle
10
69.2264973081
20
22.3205080757
40
2
100
AcDbArc
50
330
51
30
0
LINE
5
9A
100
AcDbEntity
8
back
6
ByLayer
62
256
370
-1
100
AcDbLine
10
70.9585481157
20
23.3205080757
11
68.8452994616
21
26.9807621135
0
LINE
5
9B
100
AcDbEntity
8
back
6
ByLayer
62
256
370
-1
100
AcDbLine
10
62.8867513459
20
27.9807621135
11
67.1132486541
21
27.9807621135
0
ARC
5
9C
100
AcDbEntity
8
back
6
ByLayer
62
256
370
-1
100
AcDbCircle
10
67.1132486541
20
25.9807621135
40
2
100
AcDbArc
50
30
51
90
0
ARC
5
9D
100
AcDbEntity
8
back
6
ByLayer
62
256
370
-1
100
AcDbCircle
10
47.8867513459
20
34.6410161514
40
2
100
AcDbArc
50
90
51
150
0
LINE
5
9E
100
AcDbEntity
8
back
6
ByLayer
62
256
370
-1
100
AcDbLine
10
46.1547005384
20
35.6410161514
11
44.0414518843
21
31.9807621135
0
ARC
5
9F
100
AcDbEntity
8
back
6
ByLayer
62
256
370
-1
100
AcDbCircle
10
45.7735026919
20
30.9807621135
40
2
100
AcDbArc
50
150
51
210
0
LINE
5
A0
100
AcDbEntity
8
back
6
ByLayer
62
256
370
-1
100
AcDbLine
10
46.1547005384
20
26.3205080757
11
44.0414518843
21
29.9807621135
0
ARC
5
A1
100
AcDbEntity
8
back
6
ByLayer
62
256
370
-1
100
AcDbCircle
10
47.8867513459
20
27.3205080757
40
2
100
AcDbArc
50
210
51
270
0
LINE
5
A2
100
AcDbEntity
8
back
6
ByLayer
62
256
370
-1
100
AcDbLine
10
47.8867513459
20
25.3205080757
11
52.1132486541
21
25.3205080757
0
ARC
5
A3
100
AcDbEntity
8
back
6
ByLayer
62
256
370
-1
100
AcDbCircle
10
52.1132486541
20
27.3205080757
40
2
100
AcDbArc
50
270
51
330
0
LINE
5
A4
100
AcDbEntity
8
back
6
ByLayer
62
256
370
-1
100
AcDbLine
10
55.9585481157
20
29.9807621135
11
53.8452994616
21
26.3205080757
0
ARC
5
A5
100
AcDbEntity
8
back
6
ByLayer
62
256
370
-1
100
AcDbCircle
10
54.2264973081
20
30.9807621135
40
2
100
AcDbArc
50
330
51
30
0
LINE
5
A6
100
AcDbEntity
8
back
6
ByLayer
62
256
370
-1
100
AcDbLine
10
55.9585481157
20
31.9807621135
11
53.8452994616
21
35.6410161514
0
LINE
5
A7
100
AcDbEntity
8
back
6
ByLayer
62
256
370
-1
100
AcDbLine
10
47.8867513459
20
36.6410161514
11
52.1132486541
21
36.6410161514
0
ARC
5
A8
100
AcDbEntity
8
back
6
ByLayer
62
256
370
-1
100
AcDbCircle
10
52.1132486541
20
34.6410161514
40
2
100
AcDbArc
50
30
51
90
0
ARC
5
A9
100
AcDbEntity
8
back
6
ByLayer
62
256
370
-1
100
AcDbCircle
10
32.8867513459
20
43.3012701892
40
2
100
AcDbArc
50
90
51
150
0
LINE
5
AA
100
AcDbEntity
8
back
6
ByLayer
62
256
370
-1
100
AcDbLine
10
31.1547005384
20
44.3012701892
11
29.0414518843
21
40.6410161514
0
ARC
5
AB
100
AcDbEntity
8
back
6
ByLayer
62
256
370
-1
100
AcDbCircle
10
30.7735026919
20
39.6410161514
40
2
100
AcDbArc
50
150
51
210
0
LINE
5
AC
100
AcDbEntity
8
back
6
ByLayer
62
256
370
-1
100
AcDbLine
10
31.1547005384
20
34.9807621135
11
29.0414518843
21
38.6410161514
0
ARC
5
AD
100
AcDbEntity
8
back
6
ByLayer
62
256
370
-1
100
AcDbCircle
10
32.8867513459
20
35.9807621135
40
2
100
AcDbArc
50
210
51
270
0
LINE
5
AE
100
AcDbEntity
8
back
6
ByLayer
62
256
370
-1
100
AcDbLine
10
32.8867513459
20
33.9807621135
11
37.1132486541
21
33.9807621135
0
ARC
5
AF
100
AcDbEntity
8
back
6
ByLayer
62
256
370
-1
100
AcDbCircle
10
37.1132486541
20
35.9807621135
40
2
100
AcDbArc
50
270
51
330
0
LINE
5
B0
100
AcDbEntity
8
back
6
ByLayer
62
256
370
-1
100
AcDbLine
10
40.9585481157
20
38.6410161514
11
38.8452994616
21
34.9807621135
0
ARC
5
B1
100
AcDbEntity
8
back
6
ByLayer
62
256
370
-1
100
AcDbCircle
10
39.2264973081
20
39.6410161514
40
2
100
AcDbArc
50
330
51
30
0
LINE
5
B2
100
AcDbEntity
8
back
6
ByLayer
62
256
370
-1
100
AcDbLine
10
40.9585481157
20
40.6410161514
11
38.8452994616
21
44.3012701892
0
LINE
5
B3
100
AcDbEntity
8
back
6
ByLayer
62
256
370
-1
100
AcDbLine
10
32.8867513459
20
45.3012701892
11
37.1132486541
21
45.3012701892
0
ARC
5
B4
100
AcDbEntity
8
back
6
ByLayer
62
256
370
-1
100
AcDbCircle
10
37.1132486541
20
43.3012701892
40
2
100
AcDbArc
50
30
51
90
0
ARC
5
B5
100
AcDbEntity
8
back
6
ByLayer
62
256
370
-1
100
AcDbCircle
10
62.8867513459
20
43.3012701892
40
2
100
AcDbArc
50
90
51
150
0
LINE
5
B6
100
AcDbEntity
8
back
6
ByLayer
62
256
370
-1
100
AcDbLine
10
61.1547005384
20
44.3012701892
11
59.0414518843
21
40.6410161514
0
ARC
5
B7
100
AcDbEntity
8
back
6
ByLayer
62
256
370
-1
100
AcDbCircle
10
60.7735026919
20
39.6410161514
40
2
100
AcDbArc
50
150
51
210
0
LINE
5
B8
100
AcDbEntity
8
back
6
ByLayer
62
256
370
-1
100
AcDbLine
10
61.1547005384
20
34.9807621135
11
59.0414518843
21
38.6410161514
0
ARC
5
B9
100
AcDbEntity
8
back
6
ByLayer
62
256
370
-1
100
AcDbCircle
10
62.8867513459
20
35.9807621135
40
2
100
AcDbArc
50
210
51
270
0
LINE
5
BA
100
AcDbEntity
8
back
6
ByLayer
62
256
370
-1
100
AcDbLine
10
62.8867513459
20
33.9807621135
11
67.1132486541
21
33.9807621135
0
ARC
5
BB
100
AcDbEntity
8
back
6
ByLayer
62
256
370
-1
100
AcDbCircle
10
67.1132486541
20
35.9807621135
40
2
100
AcDbArc
50
270
51
330
0
LINE
5
BC
100
AcDbEntity
8
back
6
ByLayer
62
256
370
-1
100
AcDbLine
10
70.9585481157
20
38.6410161514
11
68.8452994616
21
34.9807621135
0
ARC
5
BD
100
AcDbEntity
8
back
6
ByLayer
62
256
370
-1
100
AcDbCircle
10
69.2264973081
20
39.6410161514
40
2
100
AcDbArc
50
330
51
30
0
LINE
5
BE
100
AcDbEntity
8
back
6
ByLayer
62
256
370
-1
100
AcDbLine
10
70.9585481157
20
40.6410161514
11
68.8452994616
21
44.3012701892
0
LINE
5
BF
100
AcDbEntity
8
back
6
ByLayer
62
256
370
-1
100
AcDbLine
10
62.8867513459
20
45.3012701892
11
67.1132486541
21
45.3012701892
0
ARC
5
C0
100
AcDbEntity
8
back
6
ByLayer
62
256
370
-1
100
AcDbCircle
10
67.1132486541
20
43.3012701892
40
2
100
AcDbArc
50
30
51
90
0
ARC
5
C1
100
AcDbEntity
8
back
6
ByLayer
62
256
370
-1
100
AcDbCircle
10
47.8867513459
20
51.9615242271
40
2
100
AcDbArc
50
90
51
150
0
LINE
5
C2
100
AcDbEntity
8
back
6
ByLayer
62
256
370
-1
100
AcDbLine
10
46.1547005384
20
52.9615242271
11
44.0414518843
21
49.3012701892
0
ARC
5
C3
100
AcDbEntity
8
back
6
ByLayer
62
256
370
-1
100
AcDbCircle
10
45.7735026919
20
48.3012701892
40
2
100
AcDbArc
50
150
51
210
0
LINE
5
C4
100
AcDbEntity
8
back
6
ByLayer
62
256
370
-1
100
AcDbLine
10
46.1547005384
20
43.6410161514
11
44.0414518843
21
47.3012701892
0
ARC
5
C5
100
AcDbEntity
8
back
6
ByLayer
62
256
370
-1
100
AcDbCircle
10
47.8867513459
20
44.6410161514
40
2
100
AcDbArc
50
210
51
270
0
LINE
5
C6
100
AcDbEntity
8
back
6
ByLayer
62
256
370
-1
100
AcDbLine
10
47.8867513459
20
42.6410161514
11
52.1132486541
21
42.6410161514
0
ARC
5
C7
100
AcDbEntity
8
back
6
ByLayer
62
256
370
-1
100
AcDbCircle
10
52.1132486541
20
44.6410161514
40
2
100
AcDbArc
50
270
51
330
0
LINE
5
C8
100
AcDbEntity
8
back
6
ByLayer
62
256
370
-1
100
AcDbLine
10
55.9585481157
20
47.3012701892
11
53.8452994616
21
43.6410161514
0
ARC
5
C9
100
AcDbEntity
8
back
6
ByLayer
62
256
370
-1
100
AcDbCircle
10
54.2264973081
20
48.3012701892
40
2
100
AcDbArc
50
330
51
30
0
LINE
5
CA
100
AcDbEntity
8
back
6
ByLayer
62
256
370
-1
100
AcDbLine
10
55.9585481157
20
49.3012701892
11
53.8452994616
21
52.9615242271
0
LINE
5
CB
100
AcDbEntity
8
back
6
ByLayer
62
256
370
-1
100
AcDbLine
10
47.8867513459
20
53.9615242271
11
52.1132486541
21
53.9615242271
0
ARC
5
CC
100
AcDbEntity
8
back
6
ByLayer
62
256
370
-1
100
AcDbCircle
10
52.1132486541
20
51.9615242271
40
2
100
AcDbArc
50
30
51
90
0
ARC
5
CD
100
AcDbEntity
8
back
6
ByLayer
62
256
370
-1
100
AcDbCircle
10
32.8867513459
20
60.6217782649
40
2
100
AcDbArc
50
90
51
150
0
LINE
5
CE
100
AcDbEntity
8
back
6
ByLayer
62
256
370
-1
100
AcDbLine
10
31.1547005384
20
61.6217782649
11
29.0414518843
21
57.9615242271
0
ARC
5
CF
100
AcDbEntity
8
back
6
ByLayer
62
256
370
-1
100
AcDbCircle
10
30.7735026919
20
56.9615242271
40
2
100
AcDbArc
50
150
51
210
0
LINE
5
D0
100
AcDbEntity
8
back
6
ByLayer
62
256
370
-1
100
AcDbLine
10
31.1547005384
20
52.3012701892
11
29.0414518843
21
55.9615242271
0
ARC
5
D1
100
AcDbEntity
8
back
6
ByLayer
62
256
370
-1
100
AcDbCircle
10
32.8867513459
20
53.3012701892
40
2
100
AcDbArc
50
210
51
270
0
LINE
5
D2
100
AcDbEntity
8
back
6
ByLayer
62
256
370
-1
100
AcDbLine
10
32.8867513459
20
51.3012701892
11
37.1132486541
21
51.3012701892
0
ARC
5
D3
100
AcDbEntity
8
back
6
ByLayer
62
256
370
-1
100
AcDbCircle
10
37.1132486541
20
53.3012701892
40
2
100
AcDbArc
50
270
51
330
0
LINE
5
D4
100
AcDbEntity
8
back
6
ByLayer
62
256
370
-1
100
AcDbLine
10
40.9585481157
20
55.9615242271
11
38.8452994616
21
52.3012701892
0
ARC
5
D5
100
AcDbEntity
8
back
6
ByLayer
62
256
370
-1
100
AcDbCircle
10
39.2264973081
20
56.9615242271
40
2
100
AcDbArc
50
330
51
30
0
LINE
5
D6
100
AcDbEntity
8
back
6
ByLayer
62
256
370
-1
100
AcDbLine
10
40.9585481157
20
57.9615242271
11
38.8452994616
21
61.6217782649
0
LINE
5
D7
100
AcDbEntity
8
back
6
ByLayer
62
256
370
-1
100
AcDbLine
10
32.8867513459
20
62.6217782649
11
37.1132486541
21
62.6217782649
0
ARC
5
D8
100
AcDbEntity
8
back
6
ByLayer
62
256
370
-1
100
AcDbCircle
10
37.1132486541
20
60.6217782649
40
2
100
AcDbArc
50
30
51
90
0
ARC
5
D9
100
AcDbEntity
8
back
6
ByLayer
62
256
370
-1
100
AcDbCircle
10
62.8867513459
20
60.6217782649
40
2
100
AcDbArc
50
90
51
150
0
LINE
5
DA
100
AcDbEntity
8
back
6
ByLayer
62
256
370
-1
100
AcDbLine
10
61.1547005384
20
61.6217782649
11
59.0414518843
21
57.9615242271
0
ARC
5
DB
100
AcDbEntity
8
back
6
ByLayer
62
256
370
-1
100
AcDbCircle
10
60.7735026919
20
56.9615242271
40
2
100
AcDbArc
50
150
51
210
0
LINE
5
DC
100
AcDbEntity
8
back
6
ByLayer
62
256
370
-1
100
AcDbLine
10
61.1547005384
20
52.3012701892
11
59.0414518843
21
55.9615242271
0
ARC
5
DD
100
AcDbEntity
8
back
6
ByLayer
62
256
370
-1
100
AcDbCircle
10
62.8867513459
20
53.3012701892
40
2
100
AcDbArc
50
210
51
270
0
LINE
5
DE
100
AcDbEntity
8
back
6
ByLayer
62
256
370
-1
100
AcDbLine
10
62.8867513459
20
51.3012701892
11
67.1132486541
21
51.3012701892
0
ARC
5
DF
100
AcDbEntity
8
back
6
ByLayer
62
256
370
-1
100
AcDbCircle
10
67.1132486541
20
53.3012701892
40
2
100
AcDbArc
50
270
51
330
0
LINE
5
E0
100
AcDbEntity
8
back
6
ByLayer
62
256
370
-1
100
AcDbLine
10
70.9585481157
20
55.9615242271
11
68.8452994616
21
52.3012701892
0
ARC
5
E1
100
AcDbEntity
8
back
6
ByLayer
62
256
370
-1
100
AcDbCircle
10
69.2264973081
20
56.9615242271
40
2
100
AcDbArc
50
330
51
30
0
LINE
5
E2
100
AcDbEntity
8
back
6
ByLayer
62
256
370
-1
100
AcDbLine
10
70.9585481157
20
57.9615242271
11
68.8452994616
21
61.6217782649
0
LINE
5
E3
100
AcDbEntity
8
back
6
ByLayer
62
256
370
-1
100
AcDbLine
10
62.8867513459
20
62.6217782649
11
67.1132486541
21
62.6217782649
0
ARC
5
E4
100
AcDbEntity
8
back
6
ByLayer
62
256
370
-1
100
AcDbCircle
10
67.1132486541
20
60.6217782649
40
2
100
AcDbArc
50
30
51
90
0
ARC
5
E5
100
AcDbEntity
8
back
6
ByLayer
62
256
370
-1
100
AcDbCircle
10
47.8867513459
20
69.2820323028
40
2
100
AcDbArc
50
90
51
150
0
LINE
5
E6
100
AcDbEntity
8
back
6
ByLayer
62
256
370
-1
100
AcDbLine
10
46.1547005384
20
70.2820323028
11
44.0414518843
21
66.6217782649
0
ARC
5
E7
100
AcDbEntity
8
back
6
ByLayer
62
256
370
-1
100
AcDbCircle
10
45.7735026919
20
65.6217782649
40
2
100
AcDbArc
50
150
51
210
0
LINE
5
E8
100
AcDbEntity
8
back
6
ByLayer
62
256
370
-1
100
AcDbLine
10
46.1547005384
20
60.9615242271
11
44.0414518843
21
64.6217782649
0
ARC
5
E9
100
AcDbEntity
8
back
6
ByLayer
62
256
370
-1
100
AcDbCircle
10
47.8867513459
20
61.9615242271
40
2
100
AcDbArc
50
210
51
270
0
LINE
5
EA
100
AcDbEntity
8
back
6
ByLayer
62
256
370
-1
100
AcDbLine
10
47.8867513459
20
59.9615242271
11
52.1132486541
21
59.9615242271
0
ARC
5
EB
100
AcDbEntity
8
back
6
ByLayer
62
256
370
-1
100
AcDbCircle
10
52.1132486541
20
61.9615242271
40
2
100
AcDbArc
50
270
51
330
0
LINE
5
EC
100
AcDbEntity
8
back
6
ByLayer
62
256
370
-1
100
AcDbLine
10
55.9585481157
20
64.6217782649
11
53.8452994616
21
60.9615242271
0
ARC
5
ED
100
AcDbEntity
8
back
6
ByLayer
62
256
370
-1
100
AcDbCircle
10
54.2264973081
20
65.6217782649
40
2
100
AcDbArc
50
330
51
30
0
LINE
5
EE
100
AcDbEntity
8
back
6
ByLayer
62
256
370
-1
100
AcDbLine
10
55.9585481157
20
66.6217782649
11
53.8452994616
21
70.2820323028
0
LINE
5
EF
100
AcDbEntity
8
back
6
ByLayer
62
256
370
-1
100
AcDbLine
10
47.8867513459
20
71.2820323028
11
52.1132486541
21
71.2820323028
0
ARC
5
F0
100
AcDbEntity
8
back
6
ByLayer
62
256
370
-1
100
AcDbCircle
10
52.1132486541
20
69.2820323028
40
2
100
AcDbArc
50
30
51
90
0
LINE
5
F1
100
AcDbEntity
8
0
6
ByLayer
62
256
370
-1
100
AcDbLine
10
0
20
0
11
300
21
0
0
LINE
5
F2
100
AcDbEntity
8
0
6
ByLayer
62
256
370
-1
100
AcDbLine
10
300
20
0
11
300
21
200
0
LINE
5
F3
100
AcDbEntity
8
0
6
ByLayer
62
256
370
-1
100
AcDbLine
10
300
20
200
11
0
21
200
0
LINE
5
F4
100
AcDbEntity
8
0
6
ByLayer
62
256
370
-1
100
AcDbLine
10
0
20
200
11
0
21
0
0
LINE
5
F5
100
AcDbEntity
8
bulkhead
6
ByLayer
62
256
370
-1
100
AcDbLine
10
100
20
39.0987
11
122
21
39.0987
0
LINE
5
F6
100
AcDbEntity
8
bulkhead
6
ByLayer
62
256
370
-1
100
AcDbLine
10
122
20
39.0987
11
122
21
41.0987
0
LINE
5
F7
100
AcDbEntity
8
bulkhead
6
ByLayer
62
256
370
-1
100
AcDbLine
10
122
20
41.0987
11
134
21
41.0987
0
LINE
5
F8
100
AcDbEntity
8
bulkhead
6
ByLayer
62
256
370
-1
100
AcDbLine
10
134
20
41.0987
11
134
21
39.0987
0
LINE
5
F9
100
AcDbEntity
8
bulkhead
6
ByLayer
62
256
370
-1
100
AcDbLine
10
134
20
39.0987
11
156
21
39.0987
0
LINE
5
FA
100
AcDbEntity
8
bulkhead
6
ByLayer
62
256
370
-1
100
AcDbLine
10
156
20
39.0987
11
156
21
26.54935
0
LINE
5
FB
100
AcDbEntity
8
bulkhead
6
ByLayer
62
256
370
-1
100
AcDbLine
10
156
20
26.54935
11
158
21
26.54935
0
LINE
5
FC
100
AcDbEntity
8
bulkhead
6
ByLayer
62
256
370
-1
100
AcDbLine
10
158
20
26.54935
11
158
21
14.54935
0
LINE
5
FD
100
AcDbEntity
8
bulkhead
6
ByLayer
62
256
370
-1
100
AcDbLine
10
158
20
14.54935
11
156
21
14.54935
0
LINE
5
FE
100
AcDbEntity
8
bulkhead
6
ByLayer
62
256
370
-1
100
AcDbLine
10
156
20
14.54935
11
156
21
2
0
LINE
5
FF
100
AcDbEntity
8
bulkhead
6
ByLayer
62
256
370
-1
100
AcDbLine
10
156
20
2
11
134
21
2
0
LINE
5
100
100
AcDbEntity
8
bulkhead
6
ByLayer
62
256
370
-1
100
AcDbLine
10
134
20
2
11
134
21
-1.42108547152e-14
0
LINE
5
101
100
AcDbEntity
8
bulkhead
6
ByLayer
62
256
370
-1
100
AcDbLine
10
134
20
-1.42108547152e-14
11
122
21
-1.42108547152e-14
0
LINE
5
102
100
AcDbEntity
8
bulkhead
6
ByLayer
62
256
370
-1
100
AcDbLine
10
122
20
-1.42108547152e-14
11
122
21
2
0
LINE
5
103
100
AcDbEntity
8
bulkhead
6
ByLayer
62
256
370
-1
100
AcDbLine
10
122
20
2
11
100
21
2
0
LINE
5
104
100
AcDbEntity
8
bulkhead
6
ByLayer
62
256
370
-1
100
AcDbLine
10
100
20
2
11
100
21
14.54935
0
LINE
5
105
100
AcDbEntity
8
bulkhead
6
ByLayer
62
256
370
-1
100
AcDbLine
10
100
20
14.54935
11
98
21
14.54935
0
LINE
5
106
100
AcDbEntity
8
bulkhead
6
ByLayer
62
256
370
-1
100
AcDbLine
10
98
20
14.54935
11
98
21
26.54935
0
LINE
5
107
100
AcDbEntity
8
bulkhead
6
ByLayer
62
256
370
-1
100
AcDbLine
10
98
20
26.54935
11
100
21
26.54935
0
LINE
5
108
100
AcDbEntity
8
bulkhead
6
ByLayer
62
256
370
-1
100
AcDbLine
10
100
20
26.54935
11
100
21
39.0987
0
ARC
5
109
100
AcDbEntity
8
bulkhead
6
ByLayer
62
256
370
-1
100
AcDbCircle
10
113
20
26.0987
40
5
100
AcDbArc
50
90
51
180
0
ARC
5
10A
100
AcDbEntity
8
bulkhead
6
ByLayer
62
256
370
-1
100
AcDbCircle
10
113
20
15
40
5
100
AcDbArc
50
180
51
270
0
ARC
5
10B
100
AcDbEntity
8
bulkhead
6
ByLayer
62
256
370
-1
100
AcDbCircle
10
143
20
15
40
5
100
AcDbArc
50
270
51
0
0
ARC
5
10C
100
AcDbEntity
8
bulkhead
6
ByLayer
62
256
370
-1
100
AcDbCircle
10
143
20
26.0987
40
5
100
AcDbArc
50
0
51
90
0
LINE
5
10D
100
AcDbEntity
8
bulkhead
6
ByLayer
62
256
370
-1
100
AcDbLine
10
113
20
31.0987
11
143
21
31.0987
0
LINE
5
10E
100
AcDbEntity
8
bulkhead
6
ByLayer
62
256
370
-1
100
AcDbLine
10
113
20
10
11
143
21
10
0
LINE
5
10F
100
AcDbEntity
8
bulkhead
6
ByLayer
62
256
370
-1
100
AcDbLine
10
148
20
26.098695735
11
148
21
15.000002336
0
LINE
5
110
100
AcDbEntity
8
bulkhead
6
ByLayer
62
256
370
-1
100
AcDbLine
10
108
20
26.0987
11
108
21
15.000002336
0
LINE
5
111
100
AcDbEntity
8
front
6
ByLayer
62
256
370
-1
100
AcDbLine
10
100
20
50
11
160
21
50
0
CIRCLE
5
112
100
AcDbEntity
8
front
6
ByLayer
62
256
370
-1
100
AcDbCircle
10
111.5
20
60
40
1.5
0
CIRCLE
5
113
100
AcDbEntity
8
front
6
ByLayer
62
256
370
-1
100
AcDbCircle
10
148.5
20
60
40
1.5
0
ARC
5
114
100
AcDbEntity
8
front
6
ByLayer
62
256
370
-1
100
AcDbCircle
10
111.5
20
120.0424
40
1.5
100
AcDbArc
50
0
51
180
0
ARC
5
115
100
AcDbEntity
8
front
6
ByLayer
62
256
370
-1
100
AcDbCircle
10
148.5
20
120.0424
40
1.5
100
AcDbArc
50
0
51
180
0
ARC
5
116
100
AcDbEntity
8
front
6
ByLayer
62
256
370
-1
100
AcDbCircle
10
148.5
20
93.0424
40
1.5
100
AcDbArc
50
180
51
0
0
ARC
5
117
100
AcDbEntity
8
front
6
ByLayer
62
256
370
-1
100
AcDbCircle
10
111.5
20
93.0424
40
1.5
100
AcDbArc
50
180
51
0
0
LINE
5
118
100
AcDbEntity
8
front
6
ByLayer
62
256
370
-1
100
AcDbLine
10
110
20
120.042398093
11
110
21
93.042401907
0
LINE
5
119
100
AcDbEntity
8
front
6
ByLayer
62
256
370
-1
100
AcDbLine
10
113
20
120.042398093
11
113
21
93.042401907
0
LINE
5
11A
100
AcDbEntity
8
front
6
ByLayer
62
256
370
-1
100
AcDbLine
10
147
20
120.042396696
11
147
21
93.042401907
0
LINE
5
11B
100
AcDbEntity
8
front
6
ByLayer
62
256
370
-1
100
AcDbLine
10
150
20
120.042397303
11
150
21
93.042401907
0
LINE
5
11C
100
AcDbEntity
8
front
6
ByLayer
62
256
370
-1
100
AcDbLine
10
100
20
125.0424
11
100
21
110.0424
0
LINE
5
11D
100
AcDbEntity
8
front
6
ByLayer
62
256
370
-1
100
AcDbLine
10
100
20
110.0424
11
102
21
110.0424
0
LINE
5
11E
100
AcDbEntity
8
front
6
ByLayer
62
256
370
-1
100
AcDbLine
10
102
20
110.0424
11
102
21
95.0424
0
LINE
5
11F
100
AcDbEntity
8
front
6
ByLayer
62
256
370
-1
100
AcDbLine
10
102
20
95.0424
11
100
21
95.0424
0
LINE
5
120
100
AcDbEntity
8
front
6
ByLayer
62
256
370
-1
100
AcDbLine
10
100
20
95.0424
11
100
21
80.0424
0
LINE
5
121
100
AcDbEntity
8
front
6
ByLayer
62
256
370
-1
100
AcDbLine
10
100
20
80.0424
11
102
21
80.0424
0
LINE
5
122
100
AcDbEntity
8
front
6
ByLayer
62
256
370
-1
100
AcDbLine
10
102
20
80.0424
11
102
21
65.0424
0
LINE
5
123
100
AcDbEntity
8
front
6
ByLayer
62
256
370
-1
100
AcDbLine
10
102
20
65.0424
11
100
21
65.0424
0
LINE
5
124
100
AcDbEntity
8
front
6
ByLayer
62
256
370
-1
100
AcDbLine
10
100
20
65.0424
11
100
21
50
0
LINE
5
125
100
AcDbEntity
8
front
6
ByLayer
62
256
370
-1
100
AcDbLine
10
160
20
125.0424
11
160
21
110.0424
0
LINE
5
126
100
AcDbEntity
8
front
6
ByLayer
62
256
370
-1
100
AcDbLine
10
160
20
110.0424
11
158
21
110.0424
0
LINE
5
127
100
AcDbEntity
8
front
6
ByLayer
62
256
370
-1
100
AcDbLine
10
158
20
110.0424
11
158
21
95.0424
0
LINE
5
128
100
AcDbEntity
8
front
6
ByLayer
62
256
370
-1
100
AcDbLine
10
158
20
95.0424
11
160
21
95.0424
0
LINE
5
129
100
AcDbEntity
8
front
6
ByLayer
62
256
370
-1
100
AcDbLine
10
160
20
95.0424
11
160
21
80.0424
0
LINE
5
12A
100
AcDbEntity
8
front
6
ByLayer
62
256
370
-1
100
AcDbLine
10
160
20
80.0424
11
158
21
80.0424
0
LINE
5
12B
100
AcDbEntity
8
front
6
ByLayer
62
256
370
-1
100
AcDbLine
10
158
20
80.0424
11
158
21
65.0424
0
LINE
5
12C
100
AcDbEntity
8
front
6
ByLayer
62
256
370
-1
100
AcDbLine
10
158
20
65.0424
11
160
21
65.0424
0
LINE
5
12D
100
AcDbEntity
8
front
6
ByLayer
62
256
370
-1
100
AcDbLine
10
160
20
65.0424
11
160
21
50
0
ARC
5
12E
100
AcDbEntity
8
front
6
ByLayer
62
256
370
-1
100
AcDbCircle
10
125
20
75.0424
40
5
100
AcDbArc
50
90
51
180
0
ARC
5
12F
100
AcDbEntity
8
front
6
ByLayer
62
256
370
-1
100
AcDbCircle
10
135
20
75.0424
40
5
100
AcDbArc
50
0
51
90
0
ARC
5
130
100
AcDbEntity
8
front
6
ByLayer
62
256
370
-1
100
AcDbCircle
10
135
20
61
40
5
100
AcDbArc
50
270
51
360
0
ARC
5
131
100
AcDbEntity
8
front
6
ByLayer
62
256
370
-1
100
AcDbCircle
10
125
20
61
40
5
100
AcDbArc
50
180
51
270
0
ARC
5
132
100
AcDbEntity
8
front
6
ByLayer
62
256
370
-1
100
AcDbCircle
10
123
20
122.0424
40
3
100
AcDbArc
50
180
51
270
0
ARC
5
133
100
AcDbEntity
8
front
6
ByLayer
62
256
370
-1
100
AcDbCircle
10
137
20
122.0424
40
3
100
AcDbArc
50
270
51
0
0
ARC
5
134
100
AcDbEntity
8
front
6
ByLayer
62
256
370
-1
100
AcDbCircle
10
143
20
122.0424
40
3
100
AcDbArc
50
90
51
180
0
ARC
5
135
100
AcDbEntity
8
front
6
ByLayer
62
256
370
-1
100
AcDbCircle
10
117
20
122.0424
40
3
100
AcDbArc
50
0
51
90
0
ARC
5
136
100
AcDbEntity
8
front
6
ByLayer
62
256
370
-1
100
AcDbCircle
10
123
20
107.0424
40
3
100
AcDbArc
50
90
51
180
0
ARC
5
137
100
AcDbEntity
8
front
6
ByLayer
62
256
370
-1
100
AcDbCircle
10
137
20
107.0424
40
3
100
AcDbArc
50
0
51
90
0
ARC
5
138
100
AcDbEntity
8
front
6
ByLayer
62
256
370
-1
100
AcDbCircle
10
137
20
98.0424
40
3
100
AcDbArc
50
270
51
0
0
ARC
5
139
100
AcDbEntity
8
front
6
ByLayer
62
256
370
-1
100
AcDbCircle
10
123
20
98.0424
40
3
100
AcDbArc
50
180
51
270
0
LINE
5
13A
100
AcDbEntity
8
front
6
ByLayer
62
256
370
-1
100
AcDbLine
10
100
20
125.0424
11
117
21
125.0424
0
LINE
5
13B
100
AcDbEntity
8
front
6
ByLayer
62
256
370
-1
100
AcDbLine
10
123
20
119.0424
11
137
21
119.0424
0
LINE
5
13C
100
AcDbEntity
8
front
6
ByLayer
62
256
370
-1
100
AcDbLine
10
143
20
125.0424
11
160
21
125.0424
0
LINE
5
13D
100
AcDbEntity
8
front
6
ByLayer
62
256
370
-1
100
AcDbLine
10
137
20
110.0424
11
123
21
110.0424
0
LINE
5
13E
100
AcDbEntity
8
front
6
ByLayer
62
256
370
-1
100
AcDbLine
10
120
20
107.0424
11
120
21
98.0424
0
LINE
5
13F
100
AcDbEntity
8
front
6
ByLayer
62
256
370
-1
100
AcDbLine
10
123
20
95.0424
11
137
21
95.0424
0
LINE
5
140
100
AcDbEntity
8
front
6
ByLayer
62
256
370
-1
100
AcDbLine
10
140
20
98.0424
11
140
21
107.0424
0
LINE
5
141
100
AcDbEntity
8
front
6
ByLayer
62
256
370
-1
100
AcDbLine
10
125
20
80.0424
11
135
21
80.0424
0
LINE
5
142
100
AcDbEntity
8
front
6
ByLayer
62
256
370
-1
100
AcDbLine
10
140
20
75.0424
11
140
21
61
0
LINE
5
143
100
AcDbEntity
8
front
6
ByLayer
62
256
370
-1
100
AcDbLine
10
135
20
56
11
125
21
56
0
LINE
5
144
100
AcDbEntity
8
front
6
ByLayer
62
256
370
-1
100
AcDbLine
10
120
20
61
11
120
21
75.0424
0
LINE
5
145
100
AcDbEntity
8
front
6
ByLayer
62
256
370
-1
100
AcDbLine
10
124
20
90.0899
11
136
21
90.0899
0
LINE
5
146
100
AcDbEntity
8
front
6
ByLayer
62
256
370
-1
100
AcDbLine
10
136
20
90.0899
11
136
21
88.0899
0
LINE
5
147
100
AcDbEntity
8
front
6
ByLayer
62
256
370
-1
100
AcDbLine
10
136
20
88.0899
11
124
21
88.0899
0
LINE
5
148
100
AcDbEntity
8
front
6
ByLayer
62
256
370
-1
100
AcDbLine
10
124
20
88.0899
11
124
21
90.0899
0
INSERT
5
149
100
AcDbEntity
8
0
6
ByLayer
62
256
370
-1
100
AcDbBlockReference
2
s
10
240
20
0
30
0
41
1
42
1
43
0
50
90
70
1
71
1
44
0
45
0
0
INSERT
5
14A
100
AcDbEntity
8
0
6
ByLayer
62
256
370
-1
100
AcDbBlockReference
2
s
10
240
20
50
30
0
41
1
42
1
43
0
50
90
70
1
71
1
44
0
45
0
0
ENDSEC
0
SECTION
2
OBJECTS
0
DICTIONARY
5
C
330
0
100
AcDbDictionary
281
1
3
ACAD_GROUP
350
D
0
DICTIONARY
5
D
330
C
100
AcDbDictionary
281
1
0
ENDSEC
0
EOF
